Bodoni-16-Bold.ufo
<glyph name="exclam" format="2">
  <advance width="1556"/>
  <unicode hex="0021"/>
  <outline>
    <contour>
      <point x="1138" y="2617" type="curve" smooth="yes"/>
      <point x="1093" y="2019"/>
      <point x="803" y="1569"/>
      <point x="803" y="1057" type="curve"/>
      <point x="746" y="1057" type="line"/>
      <point x="746" y="1569"/>
      <point x="455" y="2019"/>
      <point x="410" y="2617" type="curve" smooth="yes"/>
      <point x="408" y="2646"/>
      <point x="410" y="2670"/>
      <point x="410" y="2695" type="curve" smooth="yes"/>
      <point x="410" y="2924"/>
      <point x="520" y="3105"/>
      <point x="774" y="3105" type="curve" smooth="yes"/>
      <point x="1028" y="3105"/>
      <point x="1143" y="2924"/>
      <point x="1143" y="2695" type="curve" smooth="yes"/>
      <point x="1143" y="2670"/>
      <point x="1140" y="2646"/>
    </contour>
    <component base="period" xOffset="246"/>
  </outline>
</glyph>
<glyph name="numbersign" format="2">
  <advance width="5040"/>
  <unicode hex="0023"/>
  <outline>
    <contour>
      <point x="240" y="2080" type="line"/>
      <point x="4560" y="2080" type="line"/>
      <point x="4560" y="1968" type="line"/>
      <point x="240" y="1968" type="line"/>
    </contour>
    <contour>
      <point x="480" y="4152" type="line"/>
      <point x="4800" y="4152" type="line"/>
      <point x="4800" y="4040" type="line"/>
      <point x="480" y="4040" type="line"/>
    </contour>
    <contour>
      <point x="3608" y="6032" type="line"/>
      <point x="3720" y="6040" type="line"/>
      <point x="2920" y="-40" type="line"/>
      <point x="2808" y="-48" type="line"/>
    </contour>
    <contour>
      <point x="2040" y="6040" type="line"/>
      <point x="2152" y="6040" type="line"/>
      <point x="1352" y="-40" type="line"/>
      <point x="1240" y="-40" type="line"/>
    </contour>
  </outline>
</glyph>
<glyph name="dollar" format="2">
  <advance width="2436"/>
  <unicode hex="0024"/>
  <outline>
    <contour>
      <point x="1288" y="3400" type="line"/>
      <point x="1356" y="3400" type="line"/>
      <point x="1356" y="-328" type="line"/>
      <point x="1288" y="-328" type="line"/>
    </contour>
    <contour>
      <point x="962" y="3400" type="line"/>
      <point x="1030" y="3400" type="line"/>
      <point x="1030" y="-328" type="line"/>
      <point x="962" y="-328" type="line"/>
    </contour>
    <contour>
      <point x="2020" y="2640" type="curve"/>
      <point x="1942" y="2853"/>
      <point x="1633" y="3045"/>
      <point x="1252" y="3045" type="curve" smooth="yes"/>
      <point x="900" y="3045"/>
      <point x="655" y="2859"/>
      <point x="655" y="2568" type="curve" smooth="yes"/>
      <point x="655" y="1857"/>
      <point x="2273" y="2069"/>
      <point x="2273" y="901" type="curve" smooth="yes"/>
      <point x="2273" y="328"/>
      <point x="1859" y="-61"/>
      <point x="1220" y="-61" type="curve" smooth="yes"/>
      <point x="470" y="-61"/>
      <point x="112" y="328"/>
      <point x="112" y="635" type="curve" smooth="yes"/>
      <point x="112" y="864"/>
      <point x="250" y="1032"/>
      <point x="471" y="1032" type="curve" smooth="yes"/>
      <point x="635" y="1032"/>
      <point x="795" y="901"/>
      <point x="795" y="680" type="curve" smooth="yes"/>
      <point x="795" y="475"/>
      <point x="602" y="372"/>
      <point x="442" y="372" type="curve" smooth="yes"/>
      <point x="344" y="372"/>
      <point x="265" y="415"/>
      <point x="230" y="467" type="curve"/>
      <point x="336" y="271"/>
      <point x="598" y="2"/>
      <point x="1188" y="2" type="curve" smooth="yes"/>
      <point x="1622" y="2"/>
      <point x="1844" y="234"/>
      <point x="1844" y="586" type="curve" smooth="yes"/>
      <point x="1844" y="1378"/>
      <point x="226" y="1085"/>
      <point x="226" y="2273" type="curve" smooth="yes"/>
      <point x="226" y="2785"/>
      <point x="728" y="3113"/>
      <point x="1224" y="3113" type="curve" smooth="yes"/>
      <point x="1695" y="3113"/>
      <point x="2150" y="2851"/>
      <point x="2150" y="2478" type="curve" smooth="yes"/>
      <point x="2150" y="2249"/>
      <point x="2023" y="2101"/>
      <point x="1802" y="2101" type="curve" smooth="yes"/>
      <point x="1638" y="2101"/>
      <point x="1479" y="2208"/>
      <point x="1479" y="2423" type="curve" smooth="yes"/>
      <point x="1479" y="2621"/>
      <point x="1638" y="2740"/>
      <point x="1798" y="2740" type="curve" smooth="yes"/>
      <point x="1880" y="2740"/>
      <point x="1969" y="2702"/>
    </contour>
  </outline>
</glyph>
<glyph name="percent" format="2">
  <advance width="8160"/>
  <unicode hex="0025"/>
  <outline>
    <contour>
      <point x="5600" y="1680" type="curve" smooth="yes"/>
      <point x="5600" y="640"/>
      <point x="5728" y="32"/>
      <point x="6120" y="32" type="curve" smooth="yes"/>
      <point x="6512" y="32"/>
      <point x="6640" y="640"/>
      <point x="6640" y="1680" type="curve" smooth="yes"/>
      <point x="6640" y="2720"/>
      <point x="6512" y="3328"/>
      <point x="6120" y="3328" type="curve" smooth="yes"/>
      <point x="5728" y="3328"/>
      <point x="5600" y="2720"/>
    </contour>
    <contour>
      <point x="4360" y="1680" type="curve" smooth="yes"/>
      <point x="4360" y="2824"/>
      <point x="5216" y="3440"/>
      <point x="6120" y="3440" type="curve" smooth="yes"/>
      <point x="7024" y="3440"/>
      <point x="7880" y="2824"/>
      <point x="7880" y="1680" type="curve" smooth="yes"/>
      <point x="7880" y="536"/>
      <point x="6864" y="-80"/>
      <point x="6120" y="-80" type="curve" smooth="yes"/>
      <point x="5216" y="-80"/>
      <point x="4360" y="536"/>
    </contour>
    <contour>
      <point x="6064" y="6000" type="line"/>
      <point x="6200" y="6000" type="line"/>
      <point x="2096" y="0" type="line"/>
      <point x="1960" y="0" type="line"/>
    </contour>
    <contour>
      <point x="1520" y="4320" type="curve" smooth="yes"/>
      <point x="1520" y="3280"/>
      <point x="1648" y="2672"/>
      <point x="2040" y="2672" type="curve" smooth="yes"/>
      <point x="2432" y="2672"/>
      <point x="2560" y="3280"/>
      <point x="2560" y="4320" type="curve" smooth="yes"/>
      <point x="2560" y="5360"/>
      <point x="2432" y="5968"/>
      <point x="2040" y="5968" type="curve" smooth="yes"/>
      <point x="1648" y="5968"/>
      <point x="1520" y="5360"/>
    </contour>
    <contour>
      <point x="280" y="4320" type="curve" smooth="yes"/>
      <point x="280" y="5464"/>
      <point x="1136" y="6080"/>
      <point x="2040" y="6080" type="curve" smooth="yes"/>
      <point x="2944" y="6080"/>
      <point x="3800" y="5464"/>
      <point x="3800" y="4320" type="curve" smooth="yes"/>
      <point x="3800" y="3176"/>
      <point x="2784" y="2560"/>
      <point x="2040" y="2560" type="curve" smooth="yes"/>
      <point x="1136" y="2560"/>
      <point x="280" y="3176"/>
    </contour>
  </outline>
</glyph>
<glyph name="ampersand" format="2">
  <advance width="3528"/>
  <unicode hex="0026"/>
  <outline>
    <contour>
      <point x="1670" y="1881" type="curve"/>
      <point x="1640" y="1928" type="line"/>
      <point x="1756" y="2007"/>
      <point x="1908" y="2145"/>
      <point x="1908" y="2611" type="curve" smooth="yes"/>
      <point x="1908" y="2845"/>
      <point x="1854" y="3071"/>
      <point x="1624" y="3071" type="curve" smooth="yes"/>
      <point x="1400" y="3071"/>
      <point x="1316" y="2878"/>
      <point x="1316" y="2682" type="curve" smooth="yes"/>
      <point x="1316" y="2518"/>
      <point x="1438" y="2270"/>
      <point x="1614" y="2008" type="curve" smooth="yes"/>
      <point x="2900" y="57" type="line"/>
      <point x="3416" y="57" type="line"/>
      <point x="3416" y="0" type="line"/>
      <point x="2212" y="0" type="line"/>
      <point x="856" y="2008" type="line" smooth="yes"/>
      <point x="750" y="2164"/>
      <point x="668" y="2366"/>
      <point x="668" y="2510" type="curve" smooth="yes"/>
      <point x="668" y="2878"/>
      <point x="1056" y="3112"/>
      <point x="1634" y="3112" type="curve" smooth="yes"/>
      <point x="2175" y="3112"/>
      <point x="2524" y="2917"/>
      <point x="2524" y="2610" type="curve" smooth="yes"/>
      <point x="2524" y="2230"/>
      <point x="2134" y="2049"/>
    </contour>
    <contour>
      <point x="1118" y="1678" type="curve"/>
      <point x="1146" y="1636" type="line"/>
      <point x="950" y="1528"/>
      <point x="814" y="1378"/>
      <point x="814" y="1047" type="curve" smooth="yes"/>
      <point x="814" y="563"/>
      <point x="1070" y="126"/>
      <point x="1520" y="126" type="curve" smooth="yes"/>
      <point x="2202" y="126"/>
      <point x="2842" y="960"/>
      <point x="2932" y="1852" type="curve"/>
      <point x="2989" y="1852" type="line"/>
      <point x="2889" y="954"/>
      <point x="2261" y="-40"/>
      <point x="1163" y="-40" type="curve" smooth="yes"/>
      <point x="515" y="-40"/>
      <point x="159" y="274"/>
      <point x="159" y="722" type="curve" smooth="yes"/>
      <point x="159" y="1365"/>
      <point x="942" y="1596"/>
    </contour>
    <contour>
      <point x="2392" y="1884" type="line"/>
      <point x="3374" y="1884" type="line"/>
      <point x="3374" y="1827" type="line"/>
      <point x="2392" y="1827" type="line"/>
    </contour>
  </outline>
</glyph>
<glyph name="parenleft" format="2">
  <advance width="372"/>
  <unicode hex="0028"/>
  <outline>
    <contour>
      <point x="359" y="-158" type="curve"/>
      <point x="353" y="-170" type="line"/>
      <point x="190" y="-100"/>
      <point x="65" y="92"/>
      <point x="65" y="325" type="curve" smooth="yes"/>
      <point x="65" y="558"/>
      <point x="190" y="730"/>
      <point x="353" y="800" type="curve"/>
      <point x="359" y="788" type="line"/>
      <point x="260" y="723"/>
      <point x="220" y="517"/>
      <point x="220" y="325" type="curve" smooth="yes"/>
      <point x="220" y="133"/>
      <point x="260" y="-93"/>
    </contour>
  </outline>
</glyph>
<glyph name="comma" format="2">
  <advance width="1126"/>
  <unicode hex="002C"/>
  <outline>
    <contour>
      <point x="164" y="324" type="curve" smooth="yes"/>
      <point x="164" y="520"/>
      <point x="343" y="688"/>
      <point x="561" y="688" type="curve" smooth="yes"/>
      <point x="783" y="688"/>
      <point x="971" y="499"/>
      <point x="971" y="139" type="curve" smooth="yes"/>
      <point x="971" y="-271"/>
      <point x="648" y="-633"/>
      <point x="156" y="-633" type="curve"/>
      <point x="156" y="-576" type="line"/>
      <point x="576" y="-576"/>
      <point x="931" y="-292"/>
      <point x="903" y="238" type="curve"/>
      <point x="839" y="70"/>
      <point x="684" y="-41"/>
      <point x="516" y="-41" type="curve" smooth="yes"/>
      <point x="303" y="-41"/>
      <point x="164" y="128"/>
    </contour>
  </outline>
</glyph>
<glyph name="slash" format="2">
  <advance width="4160"/>
  <unicode hex="002F"/>
  <outline>
    <contour>
      <point x="3728" y="6240" type="line"/>
      <point x="3840" y="6240" type="line"/>
      <point x="432" y="-1200" type="line"/>
      <point x="320" y="-1200" type="line"/>
    </contour>
  </outline>
</glyph>
<glyph name="one" format="2">
  <advance width="495"/>
  <unicode hex="0031"/>
  <outline>
    <contour>
      <point x="50" y="14" type="line"/>
      <point x="445" y="14" type="line"/>
      <point x="445" y="0" type="line"/>
      <point x="50" y="0" type="line"/>
    </contour>
    <contour>
      <point x="67" y="750" type="line"/>
      <point x="335" y="750" type="line"/>
      <point x="335" y="7" type="line"/>
      <point x="180" y="7" type="line"/>
      <point x="180" y="736" type="line"/>
      <point x="67" y="736" type="line"/>
    </contour>
  </outline>
</glyph>
<glyph name="two" format="2">
  <advance width="600"/>
  <unicode hex="0032"/>
  <outline>
    <contour>
      <point x="565" y="0" type="line"/>
      <point x="40" y="0" type="line"/>
      <point x="40" y="100" type="line"/>
      <point x="251" y="272" type="line" smooth="yes"/>
      <point x="335" y="341"/>
      <point x="384" y="421"/>
      <point x="384" y="530" type="curve" smooth="yes"/>
      <point x="384" y="654"/>
      <point x="330" y="725"/>
      <point x="237" y="725" type="curve" smooth="yes"/>
      <point x="142" y="725"/>
      <point x="70" y="650"/>
      <point x="68" y="554" type="curve"/>
      <point x="80" y="586"/>
      <point x="109" y="612"/>
      <point x="147" y="612" type="curve" smooth="yes"/>
      <point x="198" y="612"/>
      <point x="238" y="576"/>
      <point x="238" y="526" type="curve" smooth="yes"/>
      <point x="238" y="471"/>
      <point x="190" y="434"/>
      <point x="140" y="434" type="curve" smooth="yes"/>
      <point x="90" y="434"/>
      <point x="50" y="472"/>
      <point x="50" y="549" type="curve" smooth="yes"/>
      <point x="50" y="666"/>
      <point x="143" y="760"/>
      <point x="300" y="760" type="curve" smooth="yes"/>
      <point x="456" y="760"/>
      <point x="544" y="675"/>
      <point x="544" y="570" type="curve" smooth="yes"/>
      <point x="544" y="455"/>
      <point x="446" y="400"/>
      <point x="372" y="344" type="curve" smooth="yes"/>
      <point x="138" y="150" type="line"/>
      <point x="551" y="150" type="line"/>
      <point x="551" y="225" type="line"/>
      <point x="565" y="225" type="line"/>
    </contour>
  </outline>
</glyph>
<glyph name="three" format="2">
  <advance width="4568"/>
  <unicode hex="0033"/>
  <outline>
    <contour>
      <point x="4248" y="1640" type="curve" smooth="yes"/>
      <point x="4248" y="560"/>
      <point x="3256" y="-80"/>
      <point x="2048" y="-80" type="curve" smooth="yes"/>
      <point x="792" y="-80"/>
      <point x="200" y="632"/>
      <point x="200" y="1288" type="curve" smooth="yes"/>
      <point x="200" y="1736"/>
      <point x="496" y="2032"/>
      <point x="896" y="2032" type="curve" smooth="yes"/>
      <point x="1256" y="2032"/>
      <point x="1536" y="1768"/>
      <point x="1536" y="1360" type="curve" smooth="yes"/>
      <point x="1536" y="984"/>
      <point x="1208" y="720"/>
      <point x="856" y="720" type="curve" smooth="yes"/>
      <point x="648" y="720"/>
      <point x="520" y="808"/>
      <point x="456" y="888" type="curve"/>
      <point x="584" y="504"/>
      <point x="1048" y="96"/>
      <point x="1840" y="96" type="curve" smooth="yes"/>
      <point x="2712" y="96"/>
      <point x="2960" y="768"/>
      <point x="2960" y="1640" type="curve" smooth="yes"/>
      <point x="2960" y="2352"/>
      <point x="2736" y="3192"/>
      <point x="1584" y="3192" type="curve"/>
      <point x="1584" y="3272" type="line"/>
      <point x="3592" y="3272"/>
      <point x="4248" y="2560"/>
    </contour>
    <contour>
      <point x="1584" y="3216" type="curve"/>
      <point x="1584" y="3296" type="line"/>
      <point x="2656" y="3296"/>
      <point x="2720" y="4176"/>
      <point x="2720" y="4728" type="curve" smooth="yes"/>
      <point x="2720" y="5360"/>
      <point x="2472" y="5904"/>
      <point x="1920" y="5904" type="curve" smooth="yes"/>
      <point x="1408" y="5904"/>
      <point x="976" y="5624"/>
      <point x="816" y="5344" type="curve"/>
      <point x="888" y="5424"/>
      <point x="1008" y="5472"/>
      <point x="1136" y="5472" type="curve" smooth="yes"/>
      <point x="1448" y="5472"/>
      <point x="1752" y="5232"/>
      <point x="1752" y="4848" type="curve" smooth="yes"/>
      <point x="1752" y="4432"/>
      <point x="1416" y="4184"/>
      <point x="1096" y="4184" type="curve" smooth="yes"/>
      <point x="736" y="4184"/>
      <point x="440" y="4408"/>
      <point x="440" y="4840" type="curve" smooth="yes"/>
      <point x="440" y="5536"/>
      <point x="1272" y="6072"/>
      <point x="2088" y="6072" type="curve" smooth="yes"/>
      <point x="3136" y="6072"/>
      <point x="4008" y="5568"/>
      <point x="4008" y="4688" type="curve" smooth="yes"/>
      <point x="4008" y="3888"/>
      <point x="3512" y="3216"/>
    </contour>
  </outline>
</glyph>
<glyph name="four" format="2">
  <advance width="5120"/>
  <unicode hex="0034"/>
  <outline>
    <contour>
      <point x="4760" y="112" type="line"/>
      <point x="4760" y="0" type="line"/>
      <point x="2160" y="0" type="line"/>
      <point x="2160" y="112" type="line"/>
      <point x="2920" y="112" type="line"/>
      <point x="2920" y="5336" type="line"/>
      <point x="488" y="1776" type="line"/>
      <point x="5040" y="1776" type="line"/>
      <point x="5040" y="1664" type="line"/>
      <point x="280" y="1664" type="line"/>
      <point x="3240" y="6000" type="line"/>
      <point x="4160" y="6000" type="line"/>
      <point x="4160" y="112" type="line"/>
    </contour>
  </outline>
</glyph>
<glyph name="five" format="2">
  <advance width="2191"/>
  <unicode hex="0035"/>
  <outline>
    <contour>
      <point x="1925" y="2458" type="line"/>
      <point x="291" y="2458" type="line"/>
      <point x="291" y="1462" type="line"/>
      <point x="234" y="1462" type="line"/>
      <point x="234" y="3072" type="line"/>
      <point x="1868" y="3072" type="line"/>
      <point x="1868" y="3297" type="line"/>
      <point x="1925" y="3297" type="line"/>
    </contour>
    <contour>
      <point x="225" y="322" type="curve"/>
      <point x="274" y="190"/>
      <point x="512" y="26"/>
      <point x="790" y="26" type="curve" smooth="yes"/>
      <point x="1236" y="26"/>
      <point x="1392" y="445"/>
      <point x="1392" y="912" type="curve" smooth="yes"/>
      <point x="1392" y="1461"/>
      <point x="1233" y="1774"/>
      <point x="889" y="1774" type="curve" smooth="yes"/>
      <point x="604" y="1774"/>
      <point x="393" y="1616"/>
      <point x="311" y="1462" type="curve"/>
      <point x="262" y="1462" type="line"/>
      <point x="348" y="1654"/>
      <point x="598" y="1864"/>
      <point x="1032" y="1864" type="curve" smooth="yes"/>
      <point x="1650" y="1864"/>
      <point x="2068" y="1526"/>
      <point x="2068" y="912" type="curve" smooth="yes"/>
      <point x="2068" y="360"/>
      <point x="1565" y="-41"/>
      <point x="885" y="-41" type="curve" smooth="yes"/>
      <point x="447" y="-41"/>
      <point x="41" y="192"/>
      <point x="41" y="569" type="curve" smooth="yes"/>
      <point x="41" y="799"/>
      <point x="203" y="946"/>
      <point x="397" y="946" type="curve" smooth="yes"/>
      <point x="581" y="946"/>
      <point x="754" y="830"/>
      <point x="754" y="604" type="curve" smooth="yes"/>
      <point x="754" y="400"/>
      <point x="577" y="246"/>
      <point x="389" y="246" type="curve" smooth="yes"/>
      <point x="311" y="246"/>
      <point x="260" y="281"/>
    </contour>
  </outline>
</glyph>
<glyph name="six" format="2">
  <advance width="4880"/>
  <unicode hex="0036"/>
  <outline>
    <contour>
      <point x="3320" y="2000" type="curve" smooth="yes"/>
      <point x="3320" y="3272"/>
      <point x="3024" y="3744"/>
      <point x="2512" y="3744" type="curve" smooth="yes"/>
      <point x="1992" y="3744"/>
      <point x="1720" y="3280"/>
      <point x="1720" y="2240" type="curve"/>
      <point x="1640" y="2240" type="line"/>
      <point x="1640" y="3248"/>
      <point x="1816" y="3936"/>
      <point x="2768" y="3936" type="curve" smooth="yes"/>
      <point x="3656" y="3936"/>
      <point x="4640" y="3360"/>
      <point x="4640" y="2000" type="curve" smooth="yes"/>
      <point x="4640" y="800"/>
      <point x="3840" y="-80"/>
      <point x="2552" y="-80" type="curve" smooth="yes"/>
      <point x="1264" y="-80"/>
      <point x="400" y="800"/>
      <point x="400" y="2480" type="curve" smooth="yes"/>
      <point x="400" y="4424"/>
      <point x="1936" y="6080"/>
      <point x="4040" y="6080" type="curve"/>
      <point x="4040" y="5984" type="line"/>
      <point x="2608" y="5984"/>
      <point x="1720" y="4368"/>
      <point x="1720" y="2848" type="curve"/>
      <point x="1720" y="2240" type="line"/>
      <point x="1720" y="968"/>
      <point x="1944" y="32"/>
      <point x="2576" y="32" type="curve" smooth="yes"/>
      <point x="3208" y="32"/>
      <point x="3320" y="888"/>
    </contour>
  </outline>
</glyph>
<glyph name="seven" format="2">
  <advance width="2211"/>
  <unicode hex="0037"/>
  <outline>
    <contour>
      <point x="606" y="372" type="curve" smooth="yes"/>
      <point x="606" y="696"/>
      <point x="970" y="1086"/>
      <point x="1248" y="1528" type="curve" smooth="yes"/>
      <point x="1391" y="1766"/>
      <point x="1556" y="2081"/>
      <point x="1747" y="2437" type="curve"/>
      <point x="220" y="2437" type="line"/>
      <point x="220" y="2130" type="line"/>
      <point x="164" y="2130" type="line"/>
      <point x="164" y="3072" type="line"/>
      <point x="2171" y="3072" type="line"/>
      <point x="2171" y="3072"/>
      <point x="1654" y="2085"/>
      <point x="1336" y="1547" type="curve" smooth="yes"/>
      <point x="1133" y="1199"/>
      <point x="1087" y="1110"/>
      <point x="1087" y="958" type="curve" smooth="yes"/>
      <point x="1087" y="700"/>
      <point x="1384" y="638"/>
      <point x="1384" y="340" type="curve" smooth="yes"/>
      <point x="1384" y="127"/>
      <point x="1241" y="-41"/>
      <point x="999" y="-41" type="curve" smooth="yes"/>
      <point x="777" y="-41"/>
      <point x="606" y="82"/>
    </contour>
  </outline>
</glyph>
<glyph name="eight" format="2">
  <advance width="4800"/>
  <unicode hex="0038"/>
  <outline>
    <contour>
      <point x="1760" y="4480" type="curve" smooth="yes"/>
      <point x="1760" y="3608"/>
      <point x="1928" y="3152"/>
      <point x="2400" y="3152" type="curve" smooth="yes"/>
      <point x="2872" y="3152"/>
      <point x="3040" y="3608"/>
      <point x="3040" y="4480" type="curve" smooth="yes"/>
      <point x="3040" y="5312"/>
      <point x="2872" y="5944"/>
      <point x="2400" y="5944" type="curve" smooth="yes"/>
      <point x="1928" y="5944"/>
      <point x="1760" y="5312"/>
    </contour>
    <contour>
      <point x="480" y="4480" type="curve" smooth="yes"/>
      <point x="480" y="5360"/>
      <point x="1152" y="6080"/>
      <point x="2400" y="6080" type="curve" smooth="yes"/>
      <point x="3648" y="6080"/>
      <point x="4320" y="5360"/>
      <point x="4320" y="4480" type="curve" smooth="yes"/>
      <point x="4320" y="3600"/>
      <point x="3648" y="3048"/>
      <point x="2400" y="3048" type="curve" smooth="yes"/>
      <point x="1152" y="3048"/>
      <point x="480" y="3600"/>
    </contour>
    <contour>
      <point x="1600" y="1520" type="curve" smooth="yes"/>
      <point x="1600" y="688"/>
      <point x="1808" y="56"/>
      <point x="2400" y="56" type="curve" smooth="yes"/>
      <point x="2992" y="56"/>
      <point x="3200" y="688"/>
      <point x="3200" y="1520" type="curve" smooth="yes"/>
      <point x="3200" y="2352"/>
      <point x="2992" y="3008"/>
      <point x="2400" y="3008" type="curve" smooth="yes"/>
      <point x="1808" y="3008"/>
      <point x="1600" y="2352"/>
    </contour>
    <contour>
      <point x="320" y="1520" type="curve" smooth="yes"/>
      <point x="320" y="2480"/>
      <point x="992" y="3120"/>
      <point x="2400" y="3120" type="curve" smooth="yes"/>
      <point x="3808" y="3120"/>
      <point x="4480" y="2480"/>
      <point x="4480" y="1520" type="curve" smooth="yes"/>
      <point x="4480" y="560"/>
      <point x="3808" y="-80"/>
      <point x="2400" y="-80" type="curve" smooth="yes"/>
      <point x="992" y="-80"/>
      <point x="320" y="560"/>
    </contour>
  </outline>
</glyph>
<glyph name="less" format="2">
  <advance width="560"/>
  <unicode hex="003C"/>
  <outline>
    <contour>
      <point x="60" y="382" type="line"/>
      <point x="60" y="396" type="line"/>
      <point x="500" y="600" type="line"/>
      <point x="500" y="586" type="line"/>
    </contour>
    <contour>
      <point x="60" y="379" type="line"/>
      <point x="60" y="393" type="line"/>
      <point x="500" y="189" type="line"/>
      <point x="500" y="175" type="line"/>
    </contour>
  </outline>
</glyph>
<glyph name="question" format="2">
  <advance width="585"/>
  <unicode hex="003F"/>
  <outline>
    <contour>
      <point x="245" y="358" type="line"/>
      <point x="337" y="387"/>
      <point x="374" y="467"/>
      <point x="374" y="560" type="curve" smooth="yes"/>
      <point x="374" y="654"/>
      <point x="358" y="741"/>
      <point x="259" y="741" type="curve" smooth="yes"/>
      <point x="173" y="741"/>
      <point x="102" y="674"/>
      <point x="90" y="628" type="curve"/>
      <point x="94" y="635"/>
      <point x="112" y="650"/>
      <point x="140" y="650" type="curve" smooth="yes"/>
      <point x="184" y="650"/>
      <point x="224" y="623"/>
      <point x="224" y="575" type="curve" smooth="yes"/>
      <point x="224" y="523"/>
      <point x="187" y="494"/>
      <point x="142" y="494" type="curve" smooth="yes"/>
      <point x="92" y="494"/>
      <point x="60" y="527"/>
      <point x="60" y="581" type="curve" smooth="yes"/>
      <point x="60" y="668"/>
      <point x="154" y="760"/>
      <point x="286" y="760" type="curve" smooth="yes"/>
      <point x="437" y="760"/>
      <point x="535" y="680"/>
      <point x="535" y="560" type="curve" smooth="yes"/>
      <point x="535" y="445"/>
      <point x="425" y="359"/>
      <point x="259" y="350" type="curve"/>
      <point x="259" y="244" type="line"/>
      <point x="245" y="244" type="line"/>
    </contour>
    <component base="period" xOffset="139"/>
  </outline>
</glyph>
<glyph name="at" format="2">
  <advance width="4136"/>
  <unicode hex="0040"/>
  <outline>
    <contour>
      <point x="2410" y="1469" type="curve" smooth="yes"/>
      <point x="2410" y="819"/>
      <point x="2092" y="286"/>
      <point x="1621" y="286" type="curve" smooth="yes"/>
      <point x="1270" y="286"/>
      <point x="1000" y="516"/>
      <point x="1000" y="942" type="curve" smooth="yes"/>
      <point x="1000" y="1556"/>
      <point x="1448" y="2166"/>
      <point x="1956" y="2166" type="curve" smooth="yes"/>
      <point x="2322" y="2166"/>
      <point x="2410" y="1805"/>
    </contour>
    <contour>
      <point x="2360" y="1418" type="curve" smooth="yes"/>
      <point x="2360" y="1590"/>
      <point x="2337" y="1982"/>
      <point x="2139" y="1982" type="curve" smooth="yes"/>
      <point x="1919" y="1982"/>
      <point x="1658" y="1488"/>
      <point x="1658" y="980" type="curve" smooth="yes"/>
      <point x="1658" y="706"/>
      <point x="1720" y="475"/>
      <point x="1886" y="475" type="curve" smooth="yes"/>
      <point x="2094" y="475"/>
      <point x="2360" y="914"/>
    </contour>
    <contour>
      <point x="2274" y="860" type="curve" smooth="yes"/>
      <point x="2568" y="2130" type="line"/>
      <point x="3182" y="2130" type="line"/>
      <point x="2882" y="840" type="line" smooth="yes"/>
      <point x="2853" y="714"/>
      <point x="2736" y="384"/>
      <point x="2980" y="384" type="curve" smooth="yes"/>
      <point x="3436" y="384"/>
      <point x="3856" y="962"/>
      <point x="3856" y="1642" type="curve" smooth="yes"/>
      <point x="3856" y="2370"/>
      <point x="3404" y="3180"/>
      <point x="2394" y="3180" type="curve" smooth="yes"/>
      <point x="1234" y="3180"/>
      <point x="282" y="2116"/>
      <point x="282" y="864" type="curve" smooth="yes"/>
      <point x="282" y="-386"/>
      <point x="994" y="-820"/>
      <point x="1716" y="-820" type="curve" smooth="yes"/>
      <point x="2379" y="-820"/>
      <point x="2822" y="-624"/>
      <point x="3176" y="-224" type="curve"/>
      <point x="3216" y="-262" type="line"/>
      <point x="2872" y="-664"/>
      <point x="2384" y="-876"/>
      <point x="1716" y="-876" type="curve" smooth="yes"/>
      <point x="966" y="-876"/>
      <point x="226" y="-422"/>
      <point x="226" y="864" type="curve" smooth="yes"/>
      <point x="226" y="2146"/>
      <point x="1196" y="3236"/>
      <point x="2396" y="3236" type="curve" smooth="yes"/>
      <point x="3432" y="3236"/>
      <point x="3912" y="2392"/>
      <point x="3912" y="1642" type="curve" smooth="yes"/>
      <point x="3912" y="966"/>
      <point x="3531" y="278"/>
      <point x="2769" y="278" type="curve" smooth="yes"/>
      <point x="2281" y="278"/>
      <point x="2216" y="606"/>
    </contour>
  </outline>
</glyph>
<glyph name="A" format="2">
  <advance width="782"/>
  <unicode hex="0041"/>
  <outline>
    <contour>
      <point x="18" y="14" type="line"/>
      <point x="238" y="14" type="line"/>
      <point x="238" y="0" type="line"/>
      <point x="18" y="0" type="line"/>
    </contour>
    <contour>
      <point x="428" y="14" type="line"/>
      <point x="768" y="14" type="line"/>
      <point x="768" y="0" type="line"/>
      <point x="428" y="0" type="line"/>
    </contour>
    <contour>
      <point x="192" y="252" type="line"/>
      <point x="518" y="252" type="line"/>
      <point x="518" y="238" type="line"/>
      <point x="192" y="238" type="line"/>
    </contour>
    <contour>
      <point x="324" y="596" type="line"/>
      <point x="116" y="0" type="line"/>
      <point x="100" y="0" type="line"/>
      <point x="370" y="765" type="line"/>
      <point x="432" y="765" type="line"/>
      <point x="698" y="0" type="line"/>
      <point x="518" y="0" type="line"/>
    </contour>
  </outline>
</glyph>
<glyph name="B" format="2">
  <advance width="2856"/>
  <unicode hex="0042"/>
  <outline>
    <contour>
      <point x="1464" y="1561" type="curve" smooth="yes"/>
      <point x="972" y="1561" type="line"/>
      <point x="972" y="1606" type="line"/>
      <point x="1382" y="1606" type="line" smooth="yes"/>
      <point x="1672" y="1606"/>
      <point x="1915" y="1786"/>
      <point x="1915" y="2273" type="curve" smooth="yes"/>
      <point x="1915" y="2760"/>
      <point x="1672" y="3015"/>
      <point x="1382" y="3015" type="curve" smooth="yes"/>
      <point x="72" y="3015" type="line"/>
      <point x="72" y="3072" type="line"/>
      <point x="1464" y="3072" type="line" smooth="yes"/>
      <point x="2144" y="3072"/>
      <point x="2570" y="2846"/>
      <point x="2570" y="2314" type="curve" smooth="yes"/>
      <point x="2570" y="1802"/>
      <point x="2184" y="1561"/>
    </contour>
    <contour>
      <point x="440" y="3072" type="line"/>
      <point x="1076" y="3072" type="line"/>
      <point x="1076" y="0" type="line"/>
      <point x="440" y="0" type="line"/>
    </contour>
    <contour>
      <point x="1546" y="0" type="curve" smooth="yes"/>
      <point x="72" y="0" type="line"/>
      <point x="72" y="57" type="line"/>
      <point x="1424" y="57" type="line" smooth="yes"/>
      <point x="1756" y="57"/>
      <point x="1997" y="373"/>
      <point x="1997" y="860" type="curve" smooth="yes"/>
      <point x="1997" y="1347"/>
      <point x="1756" y="1548"/>
      <point x="1424" y="1548" type="curve" smooth="yes"/>
      <point x="972" y="1548" type="line"/>
      <point x="972" y="1593" type="line"/>
      <point x="1546" y="1593" type="line" smooth="yes"/>
      <point x="2185" y="1593"/>
      <point x="2694" y="1392"/>
      <point x="2694" y="819" type="curve" smooth="yes"/>
      <point x="2694" y="225"/>
      <point x="2266" y="0"/>
    </contour>
  </outline>
</glyph>
<glyph name="C" format="2">
  <advance width="2877"/>
  <unicode hex="0043"/>
  <outline>
    <contour>
      <point x="2632" y="3072" type="line"/>
      <point x="2673" y="3072" type="line"/>
      <point x="2673" y="2170" type="line"/>
      <point x="2645" y="2266"/>
      <point x="2335" y="2782"/>
      <point x="2269" y="2848" type="curve"/>
    </contour>
    <contour>
      <point x="2673" y="2170" type="curve"/>
      <point x="2615" y="2170" type="line"/>
      <point x="2449" y="2682"/>
      <point x="2130" y="3033"/>
      <point x="1690" y="3033" type="curve" smooth="yes"/>
      <point x="1080" y="3033"/>
      <point x="890" y="2281"/>
      <point x="890" y="1536" type="curve" smooth="yes"/>
      <point x="890" y="791"/>
      <point x="1080" y="39"/>
      <point x="1690" y="39" type="curve" smooth="yes"/>
      <point x="2228" y="39"/>
      <point x="2496" y="427"/>
      <point x="2656" y="902" type="curve"/>
      <point x="2714" y="902" type="line"/>
      <point x="2591" y="357"/>
      <point x="2234" y="-41"/>
      <point x="1648" y="-41" type="curve" smooth="yes"/>
      <point x="735" y="-41"/>
      <point x="174" y="623"/>
      <point x="174" y="1536" type="curve" smooth="yes"/>
      <point x="174" y="2449"/>
      <point x="735" y="3113"/>
      <point x="1648" y="3113" type="curve" smooth="yes"/>
      <point x="2172" y="3113"/>
      <point x="2529" y="2715"/>
    </contour>
    <contour>
      <point x="2714" y="902" type="curve"/>
      <point x="2714" y="0" type="line"/>
      <point x="2673" y="0" type="line"/>
      <point x="2322" y="244" type="line"/>
      <point x="2388" y="310"/>
      <point x="2692" y="810"/>
    </contour>
  </outline>
</glyph>
<glyph name="D" format="2">
  <advance width="3137"/>
  <unicode hex="0044"/>
  <outline>
    <contour>
      <point x="454" y="3072" type="line"/>
      <point x="1089" y="3072" type="line"/>
      <point x="1089" y="0" type="line"/>
      <point x="454" y="0" type="line"/>
    </contour>
    <contour>
      <point x="1396" y="0" type="curve" smooth="yes"/>
      <point x="85" y="0" type="line"/>
      <point x="85" y="56" type="line"/>
      <point x="1396" y="56" type="line" smooth="yes"/>
      <point x="2027" y="56"/>
      <point x="2236" y="730"/>
      <point x="2236" y="1536" type="curve" smooth="yes"/>
      <point x="2236" y="2342"/>
      <point x="1986" y="3016"/>
      <point x="1396" y="3016" type="curve" smooth="yes"/>
      <point x="85" y="3016" type="line"/>
      <point x="85" y="3072" type="line"/>
      <point x="1396" y="3072" type="line" smooth="yes"/>
      <point x="2370" y="3072"/>
      <point x="2952" y="2449"/>
      <point x="2952" y="1536" type="curve" smooth="yes"/>
      <point x="2952" y="623"/>
      <point x="2330" y="0"/>
    </contour>
  </outline>
</glyph>
<glyph name="E" format="2">
  <advance width="5016"/>
  <unicode hex="0045"/>
  <outline>
    <contour>
      <point x="4672" y="1800" type="curve"/>
      <point x="4784" y="1800" type="line"/>
      <point x="4784" y="0" type="line"/>
      <point x="144" y="0" type="line"/>
      <point x="144" y="112" type="line"/>
      <point x="2944" y="112" type="line" smooth="yes"/>
      <point x="4040" y="112"/>
      <point x="4552" y="784"/>
    </contour>
    <contour>
      <point x="864" y="6000" type="line"/>
      <point x="2096" y="6000" type="line"/>
      <point x="2096" y="0" type="line"/>
      <point x="864" y="0" type="line"/>
    </contour>
    <contour>
      <point x="144" y="6000" type="line"/>
      <point x="4704" y="6000" type="line"/>
      <point x="4704" y="4360" type="line"/>
      <point x="4592" y="4360" type="line"/>
      <point x="4472" y="5216"/>
      <point x="3960" y="5888"/>
      <point x="3024" y="5888" type="curve" smooth="yes"/>
      <point x="144" y="5888" type="line"/>
    </contour>
    <contour>
      <point x="3344" y="2104" type="line"/>
      <point x="3224" y="2640"/>
      <point x="2840" y="3048"/>
      <point x="2384" y="3048" type="curve" smooth="yes"/>
      <point x="1824" y="3048" type="line"/>
      <point x="1824" y="3160" type="line"/>
      <point x="2384" y="3160" type="line" smooth="yes"/>
      <point x="2840" y="3160"/>
      <point x="3224" y="3528"/>
      <point x="3344" y="4064" type="curve"/>
      <point x="3456" y="4064" type="line"/>
      <point x="3456" y="2104" type="line"/>
    </contour>
  </outline>
</glyph>
<glyph name="F" format="2">
  <advance width="4816"/>
  <unicode hex="0046"/>
  <outline>
    <contour>
      <point x="144" y="6000" type="line"/>
      <point x="4576" y="6000" type="line"/>
      <point x="4576" y="4360" type="line"/>
      <point x="4464" y="4360" type="line"/>
      <point x="4344" y="5216"/>
      <point x="3920" y="5888"/>
      <point x="3024" y="5888" type="curve" smooth="yes"/>
      <point x="144" y="5888" type="line"/>
    </contour>
    <contour>
      <point x="144" y="112" type="line"/>
      <point x="2896" y="112" type="line"/>
      <point x="2896" y="0" type="line"/>
      <point x="144" y="0" type="line"/>
    </contour>
    <contour>
      <point x="864" y="6000" type="line"/>
      <point x="2096" y="6000" type="line"/>
      <point x="2096" y="0" type="line"/>
      <point x="864" y="0" type="line"/>
    </contour>
    <contour>
      <point x="3344" y="1984" type="line"/>
      <point x="3224" y="2520"/>
      <point x="2920" y="2928"/>
      <point x="2304" y="2928" type="curve" smooth="yes"/>
      <point x="1776" y="2928" type="line"/>
      <point x="1776" y="3040" type="line"/>
      <point x="2304" y="3040" type="line" smooth="yes"/>
      <point x="2920" y="3040"/>
      <point x="3224" y="3408"/>
      <point x="3344" y="3944" type="curve"/>
      <point x="3456" y="3944" type="line"/>
      <point x="3456" y="1984" type="line"/>
    </contour>
  </outline>
</glyph>
<glyph name="G" format="2">
  <advance width="6056"/>
  <unicode hex="0047"/>
  <outline>
    <contour>
      <point x="5376" y="4240" type="line"/>
      <point x="5256" y="4672"/>
      <point x="4752" y="5400"/>
      <point x="4512" y="5600" type="curve"/>
      <point x="5296" y="6000" type="line"/>
      <point x="5376" y="6000" type="line"/>
    </contour>
    <contour>
      <point x="3424" y="2336" type="line"/>
      <point x="5984" y="2336" type="line"/>
      <point x="5984" y="2224" type="line"/>
      <point x="3424" y="2224" type="line"/>
    </contour>
    <contour>
      <point x="4256" y="2256" type="line"/>
      <point x="5584" y="2256" type="line"/>
      <point x="5584" y="1240" type="line"/>
      <point x="5064" y="696"/>
      <point x="4488" y="-80"/>
      <point x="3184" y="-80" type="curve" smooth="yes"/>
      <point x="1400" y="-80"/>
      <point x="336" y="1136"/>
      <point x="336" y="3000" type="curve" smooth="yes"/>
      <point x="336" y="4864"/>
      <point x="1672" y="6080"/>
      <point x="3296" y="6080" type="curve" smooth="yes"/>
      <point x="4320" y="6080"/>
      <point x="5304" y="5224"/>
      <point x="5376" y="4240" type="curve"/>
      <point x="5264" y="4240" type="line"/>
      <point x="5080" y="5072"/>
      <point x="4336" y="5920"/>
      <point x="3408" y="5920" type="curve" smooth="yes"/>
      <point x="2216" y="5920"/>
      <point x="1744" y="4456"/>
      <point x="1744" y="3000" type="curve" smooth="yes"/>
      <point x="1744" y="1544"/>
      <point x="2032" y="56"/>
      <point x="3184" y="56" type="curve" smooth="yes"/>
      <point x="3856" y="56"/>
      <point x="4136" y="664"/>
      <point x="4256" y="1000" type="curve"/>
    </contour>
  </outline>
</glyph>
<glyph name="H" format="2">
  <advance width="3282"/>
  <unicode hex="0048"/>
  <outline>
    <contour>
      <point x="1007" y="1544" type="line"/>
      <point x="2277" y="1544" type="line"/>
      <point x="2277" y="1488" type="line"/>
      <point x="1007" y="1488" type="line"/>
    </contour>
    <contour>
      <point x="1826" y="56" type="line"/>
      <point x="3198" y="56" type="line"/>
      <point x="3198" y="0" type="line"/>
      <point x="1826" y="0" type="line"/>
    </contour>
    <contour>
      <point x="85" y="56" type="line"/>
      <point x="1458" y="56" type="line"/>
      <point x="1458" y="0" type="line"/>
      <point x="85" y="0" type="line"/>
    </contour>
    <contour>
      <point x="1826" y="3072" type="line"/>
      <point x="3198" y="3072" type="line"/>
      <point x="3198" y="3016" type="line"/>
      <point x="1826" y="3016" type="line"/>
    </contour>
    <contour>
      <point x="85" y="3072" type="line"/>
      <point x="1458" y="3072" type="line"/>
      <point x="1458" y="3016" type="line"/>
      <point x="85" y="3016" type="line"/>
    </contour>
    <contour>
      <point x="2195" y="3072" type="line"/>
      <point x="2830" y="3072" type="line"/>
      <point x="2830" y="0" type="line"/>
      <point x="2195" y="0" type="line"/>
    </contour>
    <contour>
      <point x="454" y="3072" type="line"/>
      <point x="1089" y="3072" type="line"/>
      <point x="1089" y="0" type="line"/>
      <point x="454" y="0" type="line"/>
    </contour>
  </outline>
</glyph>
<glyph name="J" format="2">
  <advance width="2184"/>
  <unicode hex="004A"/>
  <outline>
    <contour>
      <point x="546" y="3072" type="line"/>
      <point x="2124" y="3072" type="line"/>
      <point x="2124" y="3015" type="line"/>
      <point x="546" y="3015" type="line"/>
    </contour>
    <contour>
      <point x="1080" y="3072" type="line"/>
      <point x="1714" y="3072" type="line"/>
      <point x="1714" y="696" type="line"/>
      <point x="1550" y="306"/>
      <point x="1330" y="-123"/>
      <point x="732" y="-123" type="curve" smooth="yes"/>
      <point x="314" y="-123"/>
      <point x="51" y="122"/>
      <point x="51" y="430" type="curve" smooth="yes"/>
      <point x="51" y="664"/>
      <point x="223" y="819"/>
      <point x="428" y="819" type="curve" smooth="yes"/>
      <point x="612" y="819"/>
      <point x="780" y="685"/>
      <point x="780" y="455" type="curve" smooth="yes"/>
      <point x="780" y="250"/>
      <point x="622" y="92"/>
      <point x="424" y="92" type="curve" smooth="yes"/>
      <point x="354" y="92"/>
      <point x="290" y="114"/>
      <point x="256" y="136" type="curve"/>
      <point x="336" y="36"/>
      <point x="500" y="-64"/>
      <point x="715" y="-64" type="curve" smooth="yes"/>
      <point x="1014" y="-64"/>
      <point x="1080" y="205"/>
      <point x="1080" y="778" type="curve" smooth="yes"/>
    </contour>
  </outline>
</glyph>
<glyph name="K" format="2">
  <advance width="3143"/>
  <unicode hex="004B"/>
  <outline>
    <contour>
      <point x="72" y="57" type="line"/>
      <point x="1444" y="57" type="line"/>
      <point x="1444" y="0" type="line"/>
      <point x="72" y="0" type="line"/>
    </contour>
    <contour>
      <point x="72" y="3072" type="line"/>
      <point x="1484" y="3072" type="line"/>
      <point x="1484" y="3015" type="line"/>
      <point x="72" y="3015" type="line"/>
    </contour>
    <contour>
      <point x="440" y="3072" type="line"/>
      <point x="1076" y="3072" type="line"/>
      <point x="1076" y="0" type="line"/>
      <point x="440" y="0" type="line"/>
    </contour>
    <contour>
      <point x="676" y="889" type="line"/>
      <point x="592" y="889" type="line"/>
      <point x="2452" y="3064" type="line"/>
      <point x="2536" y="3064" type="line"/>
    </contour>
    <contour>
      <point x="1648" y="57" type="line"/>
      <point x="3124" y="57" type="line"/>
      <point x="3124" y="0" type="line"/>
      <point x="1648" y="0" type="line"/>
    </contour>
    <contour>
      <point x="2938" y="3015" type="line"/>
      <point x="1956" y="3015" type="line"/>
      <point x="1956" y="3072" type="line"/>
      <point x="2938" y="3072" type="line"/>
    </contour>
    <contour>
      <point x="2804" y="0" type="line"/>
      <point x="2066" y="0" type="line"/>
      <point x="1188" y="1546" type="line"/>
      <point x="1612" y="2016" type="line"/>
    </contour>
  </outline>
</glyph>
<glyph name="L" format="2">
  <advance width="2518"/>
  <unicode hex="004C"/>
  <outline>
    <contour>
      <point x="440" y="3072" type="line"/>
      <point x="1076" y="3072" type="line"/>
      <point x="1076" y="0" type="line"/>
      <point x="440" y="0" type="line"/>
    </contour>
    <contour>
      <point x="72" y="3072" type="line"/>
      <point x="1444" y="3072" type="line"/>
      <point x="1444" y="3015" type="line"/>
      <point x="72" y="3015" type="line"/>
    </contour>
    <contour>
      <point x="2437" y="0" type="line"/>
      <point x="72" y="0" type="line"/>
      <point x="72" y="57" type="line"/>
      <point x="1496" y="57" type="line" smooth="yes"/>
      <point x="2098" y="57"/>
      <point x="2318" y="402"/>
      <point x="2380" y="922" type="curve"/>
      <point x="2437" y="922" type="line"/>
    </contour>
  </outline>
</glyph>
<glyph name="M" format="2">
  <advance width="3614"/>
  <unicode hex="004D"/>
  <outline>
    <contour>
      <point x="3554" y="3072" type="line"/>
      <point x="3554" y="3015" type="line"/>
      <point x="3266" y="3015" type="line"/>
      <point x="3266" y="0" type="line"/>
      <point x="2632" y="0" type="line"/>
      <point x="2632" y="3072" type="line"/>
    </contour>
    <contour>
      <point x="92" y="57" type="line"/>
      <point x="740" y="57" type="line"/>
      <point x="740" y="0" type="line"/>
      <point x="92" y="0" type="line"/>
    </contour>
    <contour>
      <point x="2304" y="57" type="line"/>
      <point x="3554" y="57" type="line"/>
      <point x="3554" y="0" type="line"/>
      <point x="2304" y="0" type="line"/>
    </contour>
    <contour>
      <point x="1844" y="876" type="line"/>
      <point x="2599" y="3072" type="line"/>
      <point x="2660" y="3072" type="line"/>
      <point x="1594" y="-41" type="line"/>
      <point x="1530" y="-41" type="line"/>
      <point x="391" y="3072" type="line"/>
      <point x="1030" y="3072" type="line"/>
    </contour>
    <contour>
      <point x="383" y="3015" type="line"/>
      <point x="72" y="3015" type="line"/>
      <point x="72" y="3072" type="line"/>
      <point x="444" y="3072" type="line"/>
      <point x="444" y="0" type="line"/>
      <point x="383" y="0" type="line"/>
    </contour>
  </outline>
</glyph>
<glyph name="N" format="2">
  <advance width="6024"/>
  <unicode hex="004E"/>
  <outline>
    <contour>
      <point x="4952" y="6000" type="line"/>
      <point x="5072" y="6000" type="line"/>
      <point x="5072" y="-80" type="line"/>
      <point x="4888" y="-80" type="line"/>
      <point x="944" y="6000" type="line"/>
      <point x="2416" y="6000" type="line"/>
      <point x="4952" y="2048" type="line"/>
    </contour>
    <contour>
      <point x="4064" y="6000" type="line"/>
      <point x="5912" y="6000" type="line"/>
      <point x="5912" y="5888" type="line"/>
      <point x="4064" y="5888" type="line"/>
    </contour>
    <contour>
      <point x="144" y="112" type="line"/>
      <point x="2000" y="112" type="line"/>
      <point x="2000" y="0" type="line"/>
      <point x="144" y="0" type="line"/>
    </contour>
    <contour>
      <point x="960" y="5888" type="line"/>
      <point x="144" y="5888" type="line"/>
      <point x="144" y="6000" type="line"/>
      <point x="1088" y="6000" type="line"/>
      <point x="1088" y="0" type="line"/>
      <point x="960" y="0" type="line"/>
    </contour>
  </outline>
</glyph>
<glyph name="O" format="2">
  <advance width="3155"/>
  <unicode hex="004F"/>
  <outline>
    <contour>
      <point x="1578" y="-41" type="curve" smooth="yes"/>
      <point x="706" y="-41"/>
      <point x="186" y="644"/>
      <point x="186" y="1536" type="curve" smooth="yes"/>
      <point x="186" y="2428"/>
      <point x="746" y="3113"/>
      <point x="1578" y="3113" type="curve" smooth="yes"/>
      <point x="2410" y="3113"/>
      <point x="2971" y="2428"/>
      <point x="2971" y="1536" type="curve" smooth="yes"/>
      <point x="2971" y="644"/>
      <point x="2450" y="-41"/>
    </contour>
    <contour>
      <point x="1578" y="3062" type="curve" smooth="yes"/>
      <point x="1050" y="3062"/>
      <point x="902" y="2384"/>
      <point x="902" y="1536" type="curve" smooth="yes"/>
      <point x="902" y="688"/>
      <point x="1008" y="10"/>
      <point x="1578" y="10" type="curve" smooth="yes"/>
      <point x="2148" y="10"/>
      <point x="2254" y="688"/>
      <point x="2254" y="1536" type="curve" smooth="yes"/>
      <point x="2254" y="2384"/>
      <point x="2106" y="3062"/>
    </contour>
  </outline>
</glyph>
<glyph name="P" format="2">
  <advance width="2796"/>
  <unicode hex="0050"/>
  <outline>
    <contour>
      <point x="454" y="3072" type="line"/>
      <point x="1089" y="3072" type="line"/>
      <point x="1089" y="0" type="line"/>
      <point x="454" y="0" type="line"/>
    </contour>
    <contour>
      <point x="85" y="56" type="line"/>
      <point x="1457" y="56" type="line"/>
      <point x="1457" y="0" type="line"/>
      <point x="85" y="0" type="line"/>
    </contour>
    <contour>
      <point x="1498" y="1356" type="curve" smooth="yes"/>
      <point x="904" y="1356" type="line"/>
      <point x="904" y="1412" type="line"/>
      <point x="1416" y="1412" type="line" smooth="yes"/>
      <point x="1768" y="1412"/>
      <point x="1928" y="1840"/>
      <point x="1928" y="2205" type="curve" smooth="yes"/>
      <point x="1928" y="2570"/>
      <point x="1768" y="3016"/>
      <point x="1416" y="3016" type="curve" smooth="yes"/>
      <point x="85" y="3016" type="line"/>
      <point x="85" y="3072" type="line"/>
      <point x="1498" y="3072" type="line" smooth="yes"/>
      <point x="2280" y="3072"/>
      <point x="2625" y="2737"/>
      <point x="2625" y="2205" type="curve" smooth="yes"/>
      <point x="2625" y="1673"/>
      <point x="2280" y="1356"/>
    </contour>
  </outline>
</glyph>
<glyph name="Q" format="2">
  <advance width="3122"/>
  <unicode hex="0051"/>
  <outline>
    <contour>
      <point x="1566" y="-41" type="curve" smooth="yes"/>
      <point x="694" y="-41"/>
      <point x="174" y="644"/>
      <point x="174" y="1536" type="curve" smooth="yes"/>
      <point x="174" y="2428"/>
      <point x="734" y="3113"/>
      <point x="1566" y="3113" type="curve" smooth="yes"/>
      <point x="2398" y="3113"/>
      <point x="2960" y="2428"/>
      <point x="2960" y="1536" type="curve" smooth="yes"/>
      <point x="2960" y="644"/>
      <point x="2438" y="-41"/>
    </contour>
    <contour>
      <point x="1566" y="3064" type="curve" smooth="yes"/>
      <point x="1038" y="3064"/>
      <point x="890" y="2384"/>
      <point x="890" y="1536" type="curve" smooth="yes"/>
      <point x="890" y="688"/>
      <point x="996" y="8"/>
      <point x="1566" y="8" type="curve" smooth="yes"/>
      <point x="2136" y="8"/>
      <point x="2242" y="688"/>
      <point x="2242" y="1536" type="curve" smooth="yes"/>
      <point x="2242" y="2384"/>
      <point x="2094" y="3064"/>
    </contour>
    <contour>
      <point x="2386" y="-967" type="curve"/>
      <point x="2386" y="-1024" type="line"/>
      <point x="1370" y="-1024"/>
      <point x="1198" y="-793"/>
      <point x="1198" y="18" type="curve"/>
      <point x="1388" y="-23"/>
      <point x="1728" y="-23"/>
      <point x="1914" y="18" type="curve"/>
      <point x="1914" y="-727"/>
      <point x="1952" y="-967"/>
    </contour>
  </outline>
</glyph>
<glyph name="R" format="2">
  <advance width="3076"/>
  <unicode hex="0052"/>
  <outline>
    <contour>
      <point x="1519" y="1560" type="curve" smooth="yes"/>
      <point x="823" y="1560" type="line"/>
      <point x="823" y="1597" type="line"/>
      <point x="1416" y="1597" type="line" smooth="yes"/>
      <point x="1809" y="1597"/>
      <point x="2010" y="1819"/>
      <point x="2010" y="2306" type="curve" smooth="yes"/>
      <point x="2010" y="2793"/>
      <point x="1809" y="3016"/>
      <point x="1416" y="3016" type="curve" smooth="yes"/>
      <point x="85" y="3016" type="line"/>
      <point x="85" y="3072" type="line"/>
      <point x="1519" y="3072" type="line" smooth="yes"/>
      <point x="2199" y="3072"/>
      <point x="2666" y="2838"/>
      <point x="2666" y="2306" type="curve" smooth="yes"/>
      <point x="2666" y="1774"/>
      <point x="2239" y="1560"/>
    </contour>
    <contour>
      <point x="85" y="56" type="line"/>
      <point x="1539" y="56" type="line"/>
      <point x="1539" y="0" type="line"/>
      <point x="85" y="0" type="line"/>
    </contour>
    <contour>
      <point x="494" y="3072" type="line"/>
      <point x="1130" y="3072" type="line"/>
      <point x="1130" y="0" type="line"/>
      <point x="494" y="0" type="line"/>
    </contour>
    <contour>
      <point x="3014" y="53" type="line"/>
      <point x="2948" y="16"/>
      <point x="2762" y="-30"/>
      <point x="2522" y="-30" type="curve" smooth="yes"/>
      <point x="1404" y="-30"/>
      <point x="2425" y="1540"/>
      <point x="1417" y="1540" type="curve" smooth="yes"/>
      <point x="823" y="1540" type="line"/>
      <point x="823" y="1572" type="line"/>
      <point x="1744" y="1572" type="line" smooth="yes"/>
      <point x="3074" y="1572"/>
      <point x="2286" y="57"/>
      <point x="2782" y="57" type="curve" smooth="yes"/>
      <point x="2868" y="57"/>
      <point x="2938" y="78"/>
      <point x="2995" y="104" type="curve"/>
    </contour>
  </outline>
</glyph>
<glyph name="S" format="2">
  <advance width="2446"/>
  <unicode hex="0053"/>
  <outline>
    <contour>
      <point x="2120" y="2191" type="curve"/>
      <point x="2062" y="2191" type="line"/>
      <point x="1898" y="2707"/>
      <point x="1589" y="3043"/>
      <point x="1157" y="3043" type="curve" smooth="yes"/>
      <point x="825" y="3043"/>
      <point x="645" y="2857"/>
      <point x="645" y="2574" type="curve" smooth="yes"/>
      <point x="645" y="1878"/>
      <point x="2284" y="2056"/>
      <point x="2284" y="880" type="curve" smooth="yes"/>
      <point x="2284" y="307"/>
      <point x="1838" y="-61"/>
      <point x="1260" y="-61" type="curve" smooth="yes"/>
      <point x="621" y="-61"/>
      <point x="334" y="430"/>
      <point x="174" y="922" type="curve"/>
      <point x="232" y="922" type="line"/>
      <point x="380" y="488"/>
      <point x="672" y="4"/>
      <point x="1229" y="4" type="curve" smooth="yes"/>
      <point x="1622" y="4"/>
      <point x="1862" y="234"/>
      <point x="1862" y="586" type="curve" smooth="yes"/>
      <point x="1862" y="1364"/>
      <point x="215" y="1106"/>
      <point x="215" y="2294" type="curve" smooth="yes"/>
      <point x="215" y="2806"/>
      <point x="648" y="3113"/>
      <point x="1124" y="3113" type="curve" smooth="yes"/>
      <point x="1628" y="3113"/>
      <point x="1956" y="2769"/>
    </contour>
    <contour>
      <point x="2078" y="3113" type="line"/>
      <point x="2120" y="3113" type="line"/>
      <point x="2120" y="2191" type="line"/>
      <point x="2084" y="2291"/>
      <point x="1798" y="2803"/>
      <point x="1732" y="2869" type="curve"/>
    </contour>
    <contour>
      <point x="215" y="-41" type="line"/>
      <point x="174" y="-41" type="line"/>
      <point x="174" y="922" type="line"/>
      <point x="222" y="804"/>
      <point x="514" y="281"/>
      <point x="572" y="221" type="curve"/>
    </contour>
  </outline>
</glyph>
<glyph name="T" format="2">
  <advance width="2834"/>
  <unicode hex="0054"/>
  <outline>
    <contour>
      <point x="650" y="56" type="line"/>
      <point x="2186" y="56" type="line"/>
      <point x="2186" y="0" type="line"/>
      <point x="650" y="0" type="line"/>
    </contour>
    <contour>
      <point x="1100" y="3051" type="line"/>
      <point x="1736" y="3051" type="line"/>
      <point x="1736" y="0" type="line"/>
      <point x="1100" y="0" type="line"/>
    </contour>
    <contour>
      <point x="2002" y="3016" type="curve" smooth="yes"/>
      <point x="834" y="3016" type="line" smooth="yes"/>
      <point x="396" y="3016"/>
      <point x="204" y="2609"/>
      <point x="142" y="2089" type="curve"/>
      <point x="85" y="2089" type="line"/>
      <point x="85" y="3072" type="line"/>
      <point x="2750" y="3072" type="line"/>
      <point x="2750" y="2089" type="line"/>
      <point x="2694" y="2089" type="line"/>
      <point x="2632" y="2609"/>
      <point x="2440" y="3016"/>
    </contour>
  </outline>
</glyph>
<glyph name="U" format="2">
  <advance width="2959"/>
  <unicode hex="0055"/>
  <outline>
    <contour>
      <point x="2100" y="3072" type="line"/>
      <point x="2898" y="3072" type="line"/>
      <point x="2898" y="3015" type="line"/>
      <point x="2100" y="3015" type="line"/>
    </contour>
    <contour>
      <point x="72" y="3072" type="line"/>
      <point x="1484" y="3072" type="line"/>
      <point x="1484" y="3015" type="line"/>
      <point x="72" y="3015" type="line"/>
    </contour>
    <contour>
      <point x="2460" y="3072" type="line"/>
      <point x="2517" y="3072" type="line"/>
      <point x="2517" y="942" type="line" smooth="yes"/>
      <point x="2517" y="266"/>
      <point x="2214" y="-61"/>
      <point x="1546" y="-61" type="curve" smooth="yes"/>
      <point x="776" y="-61"/>
      <point x="440" y="233"/>
      <point x="440" y="942" type="curve" smooth="yes"/>
      <point x="440" y="3072" type="line"/>
      <point x="1076" y="3072" type="line"/>
      <point x="1076" y="983" type="line" smooth="yes"/>
      <point x="1076" y="442"/>
      <point x="1178" y="30"/>
      <point x="1706" y="30" type="curve" smooth="yes"/>
      <point x="2140" y="30"/>
      <point x="2460" y="301"/>
      <point x="2460" y="942" type="curve" smooth="yes"/>
    </contour>
  </outline>
</glyph>
<glyph name="V" format="2">
  <advance width="3237"/>
  <unicode hex="0056"/>
  <outline>
    <contour>
      <point x="3163" y="3016" type="line"/>
      <point x="2246" y="3016" type="line"/>
      <point x="2246" y="3072" type="line"/>
      <point x="3163" y="3072" type="line"/>
    </contour>
    <contour>
      <point x="1550" y="3016" type="line"/>
      <point x="75" y="3016" type="line"/>
      <point x="75" y="3072" type="line"/>
      <point x="1550" y="3072" type="line"/>
    </contour>
    <contour>
      <point x="1892" y="626" type="line"/>
      <point x="2760" y="3072" type="line"/>
      <point x="2828" y="3072" type="line"/>
      <point x="1710" y="-61" type="line"/>
      <point x="1448" y="-61" type="line"/>
      <point x="362" y="3072" type="line"/>
      <point x="1099" y="3072" type="line"/>
    </contour>
  </outline>
</glyph>
<glyph name="W" format="2">
  <advance width="1102"/>
  <unicode hex="0057"/>
  <outline>
    <contour>
      <point x="602" y="475" type="line"/>
      <point x="424" y="-10" type="line"/>
      <point x="368" y="-10" type="line"/>
      <point x="92" y="750" type="line"/>
      <point x="268" y="750" type="line"/>
      <point x="474" y="172" type="line"/>
      <point x="593" y="496" type="line"/>
    </contour>
    <contour>
      <point x="661" y="466" type="line"/>
      <point x="650" y="482" type="line"/>
      <point x="750" y="750" type="line"/>
      <point x="766" y="750" type="line"/>
    </contour>
    <contour>
      <point x="1092" y="736" type="line"/>
      <point x="892" y="736" type="line"/>
      <point x="892" y="750" type="line"/>
      <point x="1092" y="750" type="line"/>
    </contour>
    <contour>
      <point x="573" y="750" type="line"/>
      <point x="780" y="172" type="line"/>
      <point x="991" y="750" type="line"/>
      <point x="1008" y="750" type="line"/>
      <point x="730" y="-10" type="line"/>
      <point x="688" y="-10" type="line"/>
      <point x="412" y="750" type="line"/>
    </contour>
    <contour>
      <point x="848" y="736" type="line"/>
      <point x="12" y="736" type="line"/>
      <point x="12" y="750" type="line"/>
      <point x="848" y="750" type="line"/>
    </contour>
  </outline>
</glyph>
<glyph name="X" format="2">
  <advance width="6336"/>
  <unicode hex="0058"/>
  <outline>
    <contour>
      <point x="3248" y="3016" type="line"/>
      <point x="3088" y="3016" type="line"/>
      <point x="4976" y="5984" type="line"/>
      <point x="5120" y="5984" type="line"/>
    </contour>
    <contour>
      <point x="1008" y="0" type="line"/>
      <point x="864" y="0" type="line"/>
      <point x="3072" y="3336" type="line"/>
      <point x="3216" y="3336" type="line"/>
    </contour>
    <contour>
      <point x="3536" y="112" type="line"/>
      <point x="6256" y="112" type="line"/>
      <point x="6256" y="0" type="line"/>
      <point x="3536" y="0" type="line"/>
    </contour>
    <contour>
      <point x="96" y="112" type="line"/>
      <point x="2016" y="112" type="line"/>
      <point x="2016" y="0" type="line"/>
      <point x="96" y="0" type="line"/>
    </contour>
    <contour>
      <point x="3104" y="5888" type="line"/>
      <point x="384" y="5888" type="line"/>
      <point x="384" y="6000" type="line"/>
      <point x="3104" y="6000" type="line"/>
    </contour>
    <contour>
      <point x="5824" y="5888" type="line"/>
      <point x="4064" y="5888" type="line"/>
      <point x="4064" y="6000" type="line"/>
      <point x="5824" y="6000" type="line"/>
    </contour>
    <contour>
      <point x="5744" y="0" type="line"/>
      <point x="4304" y="0" type="line"/>
      <point x="864" y="6000" type="line"/>
      <point x="2272" y="6000" type="line"/>
    </contour>
  </outline>
</glyph>
<glyph name="Y" format="2">
  <advance width="3020"/>
  <unicode hex="0059"/>
  <outline>
    <contour>
      <point x="2980" y="3015" type="line"/>
      <point x="2120" y="3015" type="line"/>
      <point x="2120" y="3072" type="line"/>
      <point x="2980" y="3072" type="line"/>
    </contour>
    <contour>
      <point x="1484" y="3015" type="line"/>
      <point x="51" y="3015" type="line"/>
      <point x="51" y="3072" type="line"/>
      <point x="1484" y="3072" type="line"/>
    </contour>
    <contour>
      <point x="870" y="57" type="line"/>
      <point x="2284" y="57" type="line"/>
      <point x="2284" y="0" type="line"/>
      <point x="870" y="0" type="line"/>
    </contour>
    <contour>
      <point x="1846" y="1648" type="line"/>
      <point x="2610" y="3064" type="line"/>
      <point x="2678" y="3064" type="line"/>
      <point x="1874" y="1569" type="line"/>
      <point x="1874" y="0" type="line"/>
      <point x="1239" y="0" type="line"/>
      <point x="1239" y="1475" type="line"/>
      <point x="306" y="3072" type="line"/>
      <point x="1042" y="3072" type="line"/>
    </contour>
  </outline>
</glyph>
<glyph name="Z" format="2">
  <advance width="2543"/>
  <unicode hex="005A"/>
  <outline>
    <contour>
      <point x="149" y="3072" type="line"/>
      <point x="2356" y="3072" type="line"/>
      <point x="2356" y="3016" type="line"/>
      <point x="779" y="56" type="line"/>
      <point x="1521" y="56" type="line" smooth="yes"/>
      <point x="2082" y="56"/>
      <point x="2254" y="320"/>
      <point x="2336" y="840" type="curve"/>
      <point x="2392" y="840" type="line"/>
      <point x="2392" y="0" type="line"/>
      <point x="62" y="0" type="line"/>
      <point x="62" y="56" type="line"/>
      <point x="1640" y="3016" type="line"/>
      <point x="1020" y="3016" type="line" smooth="yes"/>
      <point x="459" y="3016"/>
      <point x="288" y="2752"/>
      <point x="206" y="2314" type="curve"/>
      <point x="149" y="2314" type="line"/>
    </contour>
  </outline>
</glyph>
<glyph name="backslash" format="2">
  <advance width="2139"/>
  <unicode hex="005C"/>
  <outline>
    <contour>
      <point x="226" y="3194" type="line"/>
      <point x="1978" y="-614" type="line"/>
      <point x="1916" y="-614" type="line"/>
      <point x="164" y="3194" type="line"/>
    </contour>
  </outline>
</glyph>
<glyph name="asciicircum" format="2">
  <advance width="4360"/>
  <unicode hex="005E"/>
  <outline>
    <contour>
      <point x="2176" y="5784" type="line"/>
      <point x="856" y="4984" type="line"/>
      <point x="800" y="5040" type="line"/>
      <point x="1920" y="6160" type="line"/>
      <point x="2440" y="6160" type="line"/>
      <point x="3560" y="5040" type="line"/>
      <point x="3504" y="4984" type="line"/>
    </contour>
  </outline>
</glyph>
<glyph name="a" format="2">
  <advance width="2383"/>
  <unicode hex="0061"/>
  <outline>
    <contour>
      <point x="2372" y="258" type="line"/>
      <point x="2278" y="53"/>
      <point x="2065" y="-41"/>
      <point x="1827" y="-41" type="curve" smooth="yes"/>
      <point x="1573" y="-41"/>
      <point x="1348" y="50"/>
      <point x="1348" y="320" type="curve" smooth="yes"/>
      <point x="1348" y="1249" type="line" smooth="yes"/>
      <point x="1348" y="1564"/>
      <point x="1268" y="1849"/>
      <point x="960" y="1849" type="curve" smooth="yes"/>
      <point x="786" y="1849"/>
      <point x="654" y="1793"/>
      <point x="590" y="1739" type="curve"/>
      <point x="768" y="1777"/>
      <point x="958" y="1678"/>
      <point x="958" y="1486" type="curve" smooth="yes"/>
      <point x="958" y="1302"/>
      <point x="778" y="1192"/>
      <point x="614" y="1192" type="curve" smooth="yes"/>
      <point x="430" y="1192"/>
      <point x="299" y="1310"/>
      <point x="299" y="1478" type="curve" smooth="yes"/>
      <point x="299" y="1742"/>
      <point x="656" y="1917"/>
      <point x="1070" y="1917" type="curve" smooth="yes"/>
      <point x="1746" y="1917"/>
      <point x="1921" y="1622"/>
      <point x="1921" y="1249" type="curve" smooth="yes"/>
      <point x="1921" y="234" type="line" smooth="yes"/>
      <point x="1921" y="148"/>
      <point x="1974" y="86"/>
      <point x="2072" y="86" type="curve" smooth="yes"/>
      <point x="2144" y="86"/>
      <point x="2250" y="127"/>
      <point x="2330" y="279" type="curve"/>
    </contour>
    <contour>
      <point x="1052" y="1057" type="curve" smooth="yes"/>
      <point x="1560" y="1057" type="line"/>
      <point x="1560" y="999" type="line"/>
      <point x="1196" y="999" type="line" smooth="yes"/>
      <point x="946" y="999"/>
      <point x="778" y="788"/>
      <point x="778" y="526" type="curve" smooth="yes"/>
      <point x="778" y="311"/>
      <point x="854" y="162"/>
      <point x="1010" y="162" type="curve" smooth="yes"/>
      <point x="1168" y="162"/>
      <point x="1348" y="305"/>
      <point x="1348" y="741" type="curve"/>
      <point x="1392" y="741" type="line"/>
      <point x="1392" y="233"/>
      <point x="1163" y="-41"/>
      <point x="708" y="-41" type="curve" smooth="yes"/>
      <point x="384" y="-41"/>
      <point x="156" y="160"/>
      <point x="156" y="463" type="curve" smooth="yes"/>
      <point x="156" y="807"/>
      <point x="462" y="1057"/>
    </contour>
  </outline>
</glyph>
<glyph name="b" format="2">
  <advance width="2568"/>
  <unicode hex="0062"/>
  <outline>
    <contour>
      <point x="884" y="942" type="curve" smooth="yes"/>
      <point x="884" y="1565"/>
      <point x="1124" y="1921"/>
      <point x="1566" y="1921" type="curve" smooth="yes"/>
      <point x="2012" y="1921"/>
      <point x="2436" y="1556"/>
      <point x="2436" y="942" type="curve" smooth="yes"/>
      <point x="2436" y="328"/>
      <point x="2012" y="-41"/>
      <point x="1566" y="-41" type="curve" smooth="yes"/>
      <point x="1126" y="-41"/>
      <point x="884" y="319"/>
    </contour>
    <contour>
      <point x="928" y="942" type="curve" smooth="yes"/>
      <point x="928" y="362"/>
      <point x="1183" y="62"/>
      <point x="1423" y="62" type="curve" smooth="yes"/>
      <point x="1665" y="62"/>
      <point x="1780" y="352"/>
      <point x="1780" y="942" type="curve" smooth="yes"/>
      <point x="1780" y="1532"/>
      <point x="1665" y="1818"/>
      <point x="1423" y="1818" type="curve" smooth="yes"/>
      <point x="1183" y="1818"/>
      <point x="928" y="1522"/>
    </contour>
    <contour>
      <point x="354" y="3015" type="line"/>
      <point x="74" y="3015" type="line"/>
      <point x="74" y="3072" type="line"/>
      <point x="928" y="3072" type="line"/>
      <point x="928" y="0" type="line"/>
      <point x="74" y="0" type="line"/>
      <point x="74" y="57" type="line"/>
      <point x="354" y="57" type="line"/>
    </contour>
  </outline>
</glyph>
<glyph name="c" format="2">
  <advance width="2119"/>
  <unicode hex="0063"/>
  <outline>
    <contour>
      <point x="1745" y="1616" type="curve"/>
      <point x="1687" y="1737"/>
      <point x="1481" y="1860"/>
      <point x="1247" y="1860" type="curve" smooth="yes"/>
      <point x="862" y="1860"/>
      <point x="811" y="1327"/>
      <point x="811" y="942" type="curve" smooth="yes"/>
      <point x="811" y="475"/>
      <point x="908" y="46"/>
      <point x="1264" y="46" type="curve" smooth="yes"/>
      <point x="1574" y="46"/>
      <point x="1784" y="267"/>
      <point x="1888" y="586" type="curve"/>
      <point x="1950" y="586" type="line"/>
      <point x="1844" y="230"/>
      <point x="1606" y="-41"/>
      <point x="1151" y="-41" type="curve" smooth="yes"/>
      <point x="553" y="-41"/>
      <point x="136" y="287"/>
      <point x="136" y="942" type="curve" smooth="yes"/>
      <point x="136" y="1515"/>
      <point x="496" y="1925"/>
      <point x="1176" y="1925" type="curve" smooth="yes"/>
      <point x="1614" y="1925"/>
      <point x="1948" y="1682"/>
      <point x="1948" y="1366" type="curve" smooth="yes"/>
      <point x="1948" y="1157"/>
      <point x="1806" y="1040"/>
      <point x="1622" y="1040" type="curve" smooth="yes"/>
      <point x="1458" y="1040"/>
      <point x="1286" y="1126"/>
      <point x="1286" y="1362" type="curve" smooth="yes"/>
      <point x="1286" y="1566"/>
      <point x="1450" y="1669"/>
      <point x="1590" y="1669" type="curve" smooth="yes"/>
      <point x="1670" y="1669"/>
      <point x="1723" y="1643"/>
    </contour>
  </outline>
</glyph>
<glyph name="d" format="2">
  <advance width="2568"/>
  <unicode hex="0064"/>
  <outline>
    <contour>
      <point x="1688" y="942" type="curve" smooth="yes"/>
      <point x="1688" y="319"/>
      <point x="1446" y="-41"/>
      <point x="1004" y="-41" type="curve" smooth="yes"/>
      <point x="558" y="-41"/>
      <point x="136" y="328"/>
      <point x="136" y="942" type="curve" smooth="yes"/>
      <point x="136" y="1556"/>
      <point x="558" y="1921"/>
      <point x="1004" y="1921" type="curve" smooth="yes"/>
      <point x="1444" y="1921"/>
      <point x="1688" y="1565"/>
    </contour>
    <contour>
      <point x="1642" y="942" type="curve" smooth="yes"/>
      <point x="1642" y="1548"/>
      <point x="1375" y="1818"/>
      <point x="1147" y="1818" type="curve" smooth="yes"/>
      <point x="905" y="1818"/>
      <point x="790" y="1544"/>
      <point x="790" y="942" type="curve" smooth="yes"/>
      <point x="790" y="340"/>
      <point x="918" y="76"/>
      <point x="1160" y="76" type="curve" smooth="yes"/>
      <point x="1388" y="76"/>
      <point x="1642" y="336"/>
    </contour>
    <contour>
      <point x="2496" y="57" type="line"/>
      <point x="2496" y="0" type="line"/>
      <point x="1642" y="0" type="line"/>
      <point x="1642" y="3015" type="line"/>
      <point x="1364" y="3015" type="line"/>
      <point x="1364" y="3072" type="line"/>
      <point x="2216" y="3072" type="line"/>
      <point x="2216" y="57" type="line"/>
    </contour>
  </outline>
</glyph>
<glyph name="e" format="2">
  <advance width="2156"/>
  <unicode hex="0065"/>
  <outline>
    <contour>
      <point x="410" y="1040" type="line"/>
      <point x="410" y="1098" type="line"/>
      <point x="1419" y="1098" type="line"/>
      <point x="1417" y="1434"/>
      <point x="1390" y="1868"/>
      <point x="1128" y="1868" type="curve" smooth="yes"/>
      <point x="845" y="1868"/>
      <point x="770" y="1450"/>
      <point x="770" y="983" type="curve" smooth="yes"/>
      <point x="770" y="455"/>
      <point x="862" y="34"/>
      <point x="1247" y="34" type="curve" smooth="yes"/>
      <point x="1607" y="34"/>
      <point x="1876" y="271"/>
      <point x="1978" y="586" type="curve"/>
      <point x="2032" y="586" type="line"/>
      <point x="1926" y="230"/>
      <point x="1636" y="-41"/>
      <point x="1140" y="-41" type="curve" smooth="yes"/>
      <point x="562" y="-41"/>
      <point x="136" y="308"/>
      <point x="136" y="942" type="curve" smooth="yes"/>
      <point x="136" y="1576"/>
      <point x="550" y="1925"/>
      <point x="1128" y="1925" type="curve" smooth="yes"/>
      <point x="1738" y="1925"/>
      <point x="2028" y="1486"/>
      <point x="2028" y="1040" type="curve"/>
    </contour>
  </outline>
</glyph>
<glyph name="f" format="2">
  <advance width="1601"/>
  <unicode hex="0066"/>
  <outline>
    <contour>
      <point x="54" y="57" type="line"/>
      <point x="1452" y="57" type="line"/>
      <point x="1452" y="0" type="line"/>
      <point x="54" y="0" type="line"/>
    </contour>
    <contour>
      <point x="54" y="1884" type="line"/>
      <point x="1534" y="1884" type="line"/>
      <point x="1534" y="1827" type="line"/>
      <point x="54" y="1827" type="line"/>
    </contour>
    <contour>
      <point x="1822" y="2859" type="curve"/>
      <point x="1775" y="2937"/>
      <point x="1662" y="3056"/>
      <point x="1422" y="3056" type="curve" smooth="yes"/>
      <point x="1094" y="3056"/>
      <point x="969" y="2732"/>
      <point x="969" y="2212" type="curve" smooth="yes"/>
      <point x="969" y="0" type="line"/>
      <point x="416" y="0" type="line"/>
      <point x="416" y="2097" type="line" smooth="yes"/>
      <point x="416" y="2675"/>
      <point x="813" y="3113"/>
      <point x="1407" y="3113" type="curve" smooth="yes"/>
      <point x="1759" y="3113"/>
      <point x="1972" y="2880"/>
      <point x="1972" y="2646" type="curve" smooth="yes"/>
      <point x="1972" y="2437"/>
      <point x="1840" y="2310"/>
      <point x="1656" y="2310" type="curve" smooth="yes"/>
      <point x="1492" y="2310"/>
      <point x="1325" y="2413"/>
      <point x="1325" y="2616" type="curve" smooth="yes"/>
      <point x="1325" y="2812"/>
      <point x="1472" y="2930"/>
      <point x="1644" y="2930" type="curve" smooth="yes"/>
      <point x="1728" y="2930"/>
      <point x="1800" y="2896"/>
    </contour>
  </outline>
</glyph>
<glyph name="g" format="2">
  <advance width="4968"/>
  <unicode hex="0067"/>
  <outline>
    <contour>
      <point x="400" y="560" type="curve" smooth="yes"/>
      <point x="400" y="1200"/>
      <point x="1360" y="1384"/>
      <point x="2096" y="1384" type="curve"/>
      <point x="2088" y="1328" type="line"/>
      <point x="1744" y="1328"/>
      <point x="1104" y="1216"/>
      <point x="1104" y="928" type="curve" smooth="yes"/>
      <point x="1104" y="688"/>
      <point x="1480" y="672"/>
      <point x="1920" y="672" type="curve" smooth="yes"/>
      <point x="2200" y="672"/>
      <point x="2384" y="680"/>
      <point x="2608" y="680" type="curve" smooth="yes"/>
      <point x="3208" y="680"/>
      <point x="3944" y="432"/>
      <point x="3944" y="-656" type="curve" smooth="yes"/>
      <point x="3944" y="-1624"/>
      <point x="3144" y="-2080"/>
      <point x="2064" y="-2080" type="curve" smooth="yes"/>
      <point x="1120" y="-2080"/>
      <point x="144" y="-1800"/>
      <point x="144" y="-1056" type="curve" smooth="yes"/>
      <point x="144" y="-344"/>
      <point x="1000" y="-176"/>
      <point x="1360" y="-176" type="curve" smooth="yes"/>
      <point x="1424" y="-176" type="line"/>
      <point x="1144" y="-328"/>
      <point x="1104" y="-672"/>
      <point x="1104" y="-848" type="curve" smooth="yes"/>
      <point x="1104" y="-1472"/>
      <point x="1456" y="-1952"/>
      <point x="2144" y="-1952" type="curve" smooth="yes"/>
      <point x="2848" y="-1952"/>
      <point x="3552" y="-1696"/>
      <point x="3552" y="-984" type="curve" smooth="yes"/>
      <point x="3552" y="-520"/>
      <point x="3144" y="-272"/>
      <point x="2624" y="-272" type="curve" smooth="yes"/>
      <point x="2416" y="-272"/>
      <point x="1968" y="-272"/>
      <point x="1792" y="-272" type="curve" smooth="yes"/>
      <point x="1072" y="-272"/>
      <point x="400" y="-56"/>
    </contour>
    <contour>
      <point x="1504" y="2520" type="curve" smooth="yes"/>
      <point x="1504" y="1848"/>
      <point x="1544" y="1400"/>
      <point x="1976" y="1400" type="curve" smooth="yes"/>
      <point x="2288" y="1400"/>
      <point x="2448" y="1848"/>
      <point x="2448" y="2520" type="curve" smooth="yes"/>
      <point x="2448" y="3192"/>
      <point x="2288" y="3648"/>
      <point x="1976" y="3648" type="curve" smooth="yes"/>
      <point x="1664" y="3648"/>
      <point x="1504" y="3192"/>
    </contour>
    <contour>
      <point x="344" y="2520" type="curve" smooth="yes"/>
      <point x="344" y="3400"/>
      <point x="1208" y="3760"/>
      <point x="1976" y="3760" type="curve" smooth="yes"/>
      <point x="2744" y="3760"/>
      <point x="3608" y="3400"/>
      <point x="3608" y="2520" type="curve" smooth="yes"/>
      <point x="3608" y="1640"/>
      <point x="2744" y="1288"/>
      <point x="1976" y="1288" type="curve" smooth="yes"/>
      <point x="1208" y="1288"/>
      <point x="344" y="1640"/>
    </contour>
    <contour>
      <point x="4640" y="3312" type="curve"/>
      <point x="4576" y="3488"/>
      <point x="4384" y="3608"/>
      <point x="4096" y="3608" type="curve" smooth="yes"/>
      <point x="3728" y="3608"/>
      <point x="3288" y="3408"/>
      <point x="3128" y="2712" type="curve"/>
      <point x="3040" y="2776" type="line"/>
      <point x="3200" y="3504"/>
      <point x="3696" y="3720"/>
      <point x="4096" y="3720" type="curve" smooth="yes"/>
      <point x="4624" y="3720"/>
      <point x="4864" y="3360"/>
      <point x="4864" y="3056" type="curve" smooth="yes"/>
      <point x="4864" y="2616"/>
      <point x="4600" y="2472"/>
      <point x="4360" y="2472" type="curve" smooth="yes"/>
      <point x="4120" y="2472"/>
      <point x="3856" y="2632"/>
      <point x="3856" y="2976" type="curve" smooth="yes"/>
      <point x="3856" y="3240"/>
      <point x="4048" y="3448"/>
      <point x="4336" y="3448" type="curve" smooth="yes"/>
      <point x="4488" y="3448"/>
      <point x="4608" y="3376"/>
    </contour>
  </outline>
</glyph>
<glyph name="h" format="2">
  <advance width="4936"/>
  <unicode hex="0068"/>
  <outline>
    <contour>
      <point x="3136" y="2496" type="line" smooth="yes"/>
      <point x="3136" y="3168"/>
      <point x="3024" y="3440"/>
      <point x="2688" y="3440" type="curve" smooth="yes"/>
      <point x="2072" y="3440"/>
      <point x="1808" y="2568"/>
      <point x="1808" y="1784" type="curve"/>
      <point x="1728" y="1776" type="line"/>
      <point x="1728" y="2584"/>
      <point x="1928" y="3760"/>
      <point x="3120" y="3760" type="curve" smooth="yes"/>
      <point x="4016" y="3760"/>
      <point x="4256" y="3248"/>
      <point x="4256" y="2552" type="curve" smooth="yes"/>
      <point x="4256" y="0" type="line"/>
      <point x="3136" y="0" type="line"/>
    </contour>
    <contour>
      <point x="2704" y="112" type="line"/>
      <point x="4800" y="112" type="line"/>
      <point x="4800" y="0" type="line"/>
      <point x="2704" y="0" type="line"/>
    </contour>
    <contour>
      <point x="144" y="112" type="line"/>
      <point x="2240" y="112" type="line"/>
      <point x="2240" y="0" type="line"/>
      <point x="144" y="0" type="line"/>
    </contour>
    <contour>
      <point x="688" y="5888" type="line"/>
      <point x="144" y="5888" type="line"/>
      <point x="144" y="6000" type="line"/>
      <point x="1808" y="6000" type="line"/>
      <point x="1808" y="0" type="line"/>
      <point x="688" y="0" type="line"/>
    </contour>
  </outline>
</glyph>
<glyph name="i" format="2">
  <advance width="1291"/>
  <unicode hex="0069"/>
  <outline>
    <contour>
      <point x="94" y="57" type="line"/>
      <point x="1226" y="57" type="line"/>
      <point x="1226" y="0" type="line"/>
      <point x="94" y="0" type="line"/>
    </contour>
    <contour>
      <point x="272" y="2764" type="curve" smooth="yes"/>
      <point x="272" y="2960"/>
      <point x="424" y="3113"/>
      <point x="620" y="3113" type="curve" smooth="yes"/>
      <point x="816" y="3113"/>
      <point x="968" y="2960"/>
      <point x="968" y="2764" type="curve" smooth="yes"/>
      <point x="968" y="2568"/>
      <point x="816" y="2416"/>
      <point x="620" y="2416" type="curve" smooth="yes"/>
      <point x="424" y="2416"/>
      <point x="272" y="2568"/>
    </contour>
    <contour>
      <point x="374" y="1827" type="line"/>
      <point x="94" y="1827" type="line"/>
      <point x="94" y="1884" type="line"/>
      <point x="948" y="1884" type="line"/>
      <point x="948" y="0" type="line"/>
      <point x="374" y="0" type="line"/>
    </contour>
  </outline>
</glyph>
<glyph name="j" format="2">
  <advance width="1314"/>
  <unicode hex="006A"/>
  <outline>
    <contour>
      <point x="342" y="2764" type="curve" smooth="yes"/>
      <point x="342" y="2960"/>
      <point x="494" y="3113"/>
      <point x="690" y="3113" type="curve" smooth="yes"/>
      <point x="886" y="3113"/>
      <point x="1038" y="2960"/>
      <point x="1038" y="2764" type="curve" smooth="yes"/>
      <point x="1038" y="2568"/>
      <point x="886" y="2416"/>
      <point x="690" y="2416" type="curve" smooth="yes"/>
      <point x="494" y="2416"/>
      <point x="342" y="2568"/>
    </contour>
    <contour>
      <point x="1010" y="1884" type="line"/>
      <point x="1010" y="-49" type="line" smooth="yes"/>
      <point x="1010" y="-586"/>
      <point x="694" y="-1065"/>
      <point x="121" y="-1065" type="curve" smooth="yes"/>
      <point x="-252" y="-1065"/>
      <point x="-506" y="-854"/>
      <point x="-506" y="-584" type="curve" smooth="yes"/>
      <point x="-506" y="-377"/>
      <point x="-348" y="-242"/>
      <point x="-170" y="-242" type="curve" smooth="yes"/>
      <point x="-6" y="-242"/>
      <point x="162" y="-340"/>
      <point x="162" y="-545" type="curve" smooth="yes"/>
      <point x="162" y="-739"/>
      <point x="17" y="-856"/>
      <point x="-194" y="-856" type="curve" smooth="yes"/>
      <point x="-266" y="-856"/>
      <point x="-320" y="-813"/>
      <point x="-326" y="-770" type="curve"/>
      <point x="-308" y="-870"/>
      <point x="-154" y="-1000"/>
      <point x="76" y="-1000" type="curve" smooth="yes"/>
      <point x="506" y="-1000"/>
      <point x="432" y="-436"/>
      <point x="432" y="84" type="curve" smooth="yes"/>
      <point x="436" y="1827" type="line"/>
      <point x="74" y="1827" type="line"/>
      <point x="74" y="1884" type="line"/>
    </contour>
  </outline>
</glyph>
<glyph name="k" format="2">
  <advance width="635"/>
  <unicode hex="006B"/>
  <outline>
    <contour>
      <point x="590" y="0" type="line"/>
      <point x="416" y="0" type="line"/>
      <point x="218" y="266" type="line"/>
      <point x="490" y="460" type="line"/>
      <point x="513" y="460" type="line"/>
      <point x="336" y="330" type="line"/>
    </contour>
    <contour>
      <point x="347" y="14" type="line"/>
      <point x="628" y="14" type="line"/>
      <point x="628" y="0" type="line"/>
      <point x="347" y="0" type="line"/>
    </contour>
    <contour>
      <point x="578" y="446" type="line"/>
      <point x="359" y="446" type="line"/>
      <point x="359" y="460" type="line"/>
      <point x="578" y="460" type="line"/>
    </contour>
    <contour>
      <point x="18" y="14" type="line"/>
      <point x="302" y="14" type="line"/>
      <point x="302" y="0" type="line"/>
      <point x="18" y="0" type="line"/>
    </contour>
    <contour>
      <point x="106" y="736" type="line"/>
      <point x="18" y="736" type="line"/>
      <point x="18" y="750" type="line"/>
      <point x="246" y="750" type="line"/>
      <point x="246" y="0" type="line"/>
      <point x="106" y="0" type="line"/>
    </contour>
  </outline>
</glyph>
<glyph name="l" format="2">
  <advance width="1443"/>
  <unicode hex="006C"/>
  <outline>
    <contour>
      <point x="74" y="57" type="line"/>
      <point x="1370" y="57" type="line"/>
      <point x="1370" y="0" type="line"/>
      <point x="74" y="0" type="line"/>
    </contour>
    <contour>
      <point x="436" y="3015" type="line"/>
      <point x="74" y="3015" type="line"/>
      <point x="74" y="3072" type="line"/>
      <point x="1010" y="3072" type="line"/>
      <point x="1010" y="0" type="line"/>
      <point x="436" y="0" type="line"/>
    </contour>
  </outline>
</glyph>
<glyph name="m" format="2">
  <advance width="3614"/>
  <unicode hex="006D"/>
  <outline>
    <contour>
      <point x="2096" y="1307" type="curve" smooth="yes"/>
      <point x="2096" y="0" type="line"/>
      <point x="1522" y="0" type="line"/>
      <point x="1522" y="1276" type="line" smooth="yes"/>
      <point x="1522" y="1620"/>
      <point x="1490" y="1774"/>
      <point x="1336" y="1774" type="curve" smooth="yes"/>
      <point x="1062" y="1774"/>
      <point x="928" y="1327"/>
      <point x="928" y="913" type="curve"/>
      <point x="884" y="909" type="line"/>
      <point x="884" y="1323"/>
      <point x="968" y="1925"/>
      <point x="1550" y="1925" type="curve" smooth="yes"/>
      <point x="1954" y="1925"/>
      <point x="2096" y="1663"/>
    </contour>
    <contour>
      <point x="74" y="57" type="line"/>
      <point x="1135" y="57" type="line"/>
      <point x="1135" y="0" type="line"/>
      <point x="74" y="0" type="line"/>
    </contour>
    <contour>
      <point x="1313" y="57" type="line"/>
      <point x="2302" y="57" type="line"/>
      <point x="2302" y="0" type="line"/>
      <point x="1313" y="0" type="line"/>
    </contour>
    <contour>
      <point x="2480" y="57" type="line"/>
      <point x="3541" y="57" type="line"/>
      <point x="3541" y="0" type="line"/>
      <point x="2480" y="0" type="line"/>
    </contour>
    <contour>
      <point x="354" y="1827" type="line"/>
      <point x="74" y="1827" type="line"/>
      <point x="74" y="1884" type="line"/>
      <point x="928" y="1884" type="line"/>
      <point x="928" y="0" type="line"/>
      <point x="354" y="0" type="line"/>
    </contour>
    <contour>
      <point x="3262" y="1307" type="curve" smooth="yes"/>
      <point x="3262" y="0" type="line"/>
      <point x="2689" y="0" type="line"/>
      <point x="2689" y="1276" type="line" smooth="yes"/>
      <point x="2689" y="1620"/>
      <point x="2646" y="1774"/>
      <point x="2490" y="1774" type="curve" smooth="yes"/>
      <point x="2208" y="1774"/>
      <point x="2096" y="1327"/>
      <point x="2096" y="913" type="curve"/>
      <point x="2050" y="909" type="line"/>
      <point x="2050" y="1323"/>
      <point x="2099" y="1925"/>
      <point x="2703" y="1925" type="curve" smooth="yes"/>
      <point x="3107" y="1925"/>
      <point x="3262" y="1663"/>
    </contour>
  </outline>
</glyph>
<glyph name="n" format="2">
  <advance width="4936"/>
  <unicode hex="006E"/>
  <outline>
    <contour>
      <point x="3136" y="2496" type="line" smooth="yes"/>
      <point x="3136" y="3168"/>
      <point x="3024" y="3440"/>
      <point x="2688" y="3440" type="curve" smooth="yes"/>
      <point x="2104" y="3440"/>
      <point x="1808" y="2568"/>
      <point x="1808" y="1784" type="curve"/>
      <point x="1728" y="1776" type="line"/>
      <point x="1728" y="2584"/>
      <point x="1952" y="3760"/>
      <point x="3120" y="3760" type="curve" smooth="yes"/>
      <point x="3992" y="3760"/>
      <point x="4256" y="3248"/>
      <point x="4256" y="2552" type="curve" smooth="yes"/>
      <point x="4256" y="0" type="line"/>
      <point x="3136" y="0" type="line"/>
    </contour>
    <contour>
      <point x="2704" y="112" type="line"/>
      <point x="4800" y="112" type="line"/>
      <point x="4800" y="0" type="line"/>
      <point x="2704" y="0" type="line"/>
    </contour>
    <contour>
      <point x="144" y="112" type="line"/>
      <point x="2240" y="112" type="line"/>
      <point x="2240" y="0" type="line"/>
      <point x="144" y="0" type="line"/>
    </contour>
    <contour>
      <point x="688" y="3568" type="line"/>
      <point x="144" y="3568" type="line"/>
      <point x="144" y="3680" type="line"/>
      <point x="1808" y="3680" type="line"/>
      <point x="1808" y="0" type="line"/>
      <point x="688" y="0" type="line"/>
    </contour>
  </outline>
</glyph>
<glyph name="o" format="2">
  <advance width="4432"/>
  <unicode hex="006F"/>
  <outline>
    <contour>
      <point x="1464" y="1840" type="curve" smooth="yes"/>
      <point x="1464" y="888"/>
      <point x="1624" y="32"/>
      <point x="2216" y="32" type="curve" smooth="yes"/>
      <point x="2808" y="32"/>
      <point x="2968" y="888"/>
      <point x="2968" y="1840" type="curve" smooth="yes"/>
      <point x="2968" y="2792"/>
      <point x="2808" y="3648"/>
      <point x="2216" y="3648" type="curve" smooth="yes"/>
      <point x="1624" y="3648"/>
      <point x="1464" y="2792"/>
    </contour>
    <contour>
      <point x="264" y="1840" type="curve" smooth="yes"/>
      <point x="264" y="2880"/>
      <point x="1008" y="3760"/>
      <point x="2216" y="3760" type="curve" smooth="yes"/>
      <point x="3424" y="3760"/>
      <point x="4168" y="2880"/>
      <point x="4168" y="1840" type="curve" smooth="yes"/>
      <point x="4168" y="800"/>
      <point x="3424" y="-80"/>
      <point x="2216" y="-80" type="curve" smooth="yes"/>
      <point x="1008" y="-80"/>
      <point x="264" y="800"/>
    </contour>
  </outline>
</glyph>
<glyph name="p" format="2">
  <advance width="5016"/>
  <unicode hex="0070"/>
  <outline>
    <contour>
      <point x="1728" y="1840" type="curve" smooth="yes"/>
      <point x="1728" y="3056"/>
      <point x="2192" y="3752"/>
      <point x="3056" y="3752" type="curve" smooth="yes"/>
      <point x="3928" y="3752"/>
      <point x="4752" y="3040"/>
      <point x="4752" y="1840" type="curve" smooth="yes"/>
      <point x="4752" y="640"/>
      <point x="3928" y="-80"/>
      <point x="3056" y="-80" type="curve" smooth="yes"/>
      <point x="2192" y="-80"/>
      <point x="1728" y="624"/>
    </contour>
    <contour>
      <point x="1808" y="1840" type="curve" smooth="yes"/>
      <point x="1808" y="656"/>
      <point x="2344" y="120"/>
      <point x="2768" y="120" type="curve" smooth="yes"/>
      <point x="3264" y="120"/>
      <point x="3472" y="736"/>
      <point x="3472" y="1840" type="curve" smooth="yes"/>
      <point x="3472" y="2944"/>
      <point x="3280" y="3552"/>
      <point x="2784" y="3552" type="curve" smooth="yes"/>
      <point x="2336" y="3552"/>
      <point x="1808" y="3024"/>
    </contour>
    <contour>
      <point x="144" y="-1888" type="line"/>
      <point x="2352" y="-1888" type="line"/>
      <point x="2352" y="-2000" type="line"/>
      <point x="144" y="-2000" type="line"/>
    </contour>
    <contour>
      <point x="688" y="3568" type="line"/>
      <point x="144" y="3568" type="line"/>
      <point x="144" y="3680" type="line"/>
      <point x="1808" y="3680" type="line"/>
      <point x="1808" y="-2000" type="line"/>
      <point x="688" y="-2000" type="line"/>
    </contour>
  </outline>
</glyph>
<glyph name="q" format="2">
  <advance width="627"/>
  <unicode hex="0071"/>
  <outline>
    <contour>
      <point x="412" y="230" type="curve" smooth="yes"/>
      <point x="412" y="78"/>
      <point x="353" y="-10"/>
      <point x="245" y="-10" type="curve" smooth="yes"/>
      <point x="136" y="-10"/>
      <point x="33" y="80"/>
      <point x="33" y="230" type="curve" smooth="yes"/>
      <point x="33" y="380"/>
      <point x="136" y="469"/>
      <point x="245" y="469" type="curve" smooth="yes"/>
      <point x="353" y="469"/>
      <point x="412" y="382"/>
    </contour>
    <contour>
      <point x="401" y="230" type="curve" smooth="yes"/>
      <point x="401" y="378"/>
      <point x="336" y="444"/>
      <point x="280" y="444" type="curve" smooth="yes"/>
      <point x="221" y="444"/>
      <point x="193" y="368"/>
      <point x="193" y="230" type="curve" smooth="yes"/>
      <point x="193" y="92"/>
      <point x="221" y="18"/>
      <point x="280" y="18" type="curve" smooth="yes"/>
      <point x="342" y="18"/>
      <point x="401" y="82"/>
    </contour>
    <contour>
      <point x="610" y="-236" type="line"/>
      <point x="610" y="-250" type="line"/>
      <point x="333" y="-250" type="line"/>
      <point x="333" y="-236" type="line"/>
    </contour>
    <contour>
      <point x="610" y="460" type="line"/>
      <point x="610" y="446" type="line"/>
      <point x="541" y="446" type="line"/>
      <point x="541" y="-250" type="line"/>
      <point x="401" y="-250" type="line"/>
      <point x="401" y="460" type="line"/>
    </contour>
  </outline>
</glyph>
<glyph name="r" format="2">
  <advance width="3808"/>
  <unicode hex="0072"/>
  <outline>
    <contour>
      <point x="3344" y="3376" type="curve"/>
      <point x="3248" y="3552"/>
      <point x="3040" y="3640"/>
      <point x="2832" y="3640" type="curve" smooth="yes"/>
      <point x="2000" y="3640"/>
      <point x="1808" y="2616"/>
      <point x="1808" y="1784" type="curve"/>
      <point x="1728" y="1784" type="line"/>
      <point x="1728" y="2760"/>
      <point x="1880" y="3760"/>
      <point x="2848" y="3760" type="curve" smooth="yes"/>
      <point x="3296" y="3760"/>
      <point x="3744" y="3424"/>
      <point x="3744" y="2912" type="curve" smooth="yes"/>
      <point x="3744" y="2544"/>
      <point x="3512" y="2224"/>
      <point x="3088" y="2224" type="curve" smooth="yes"/>
      <point x="2704" y="2224"/>
      <point x="2416" y="2464"/>
      <point x="2416" y="2864" type="curve" smooth="yes"/>
      <point x="2416" y="3360"/>
      <point x="2960" y="3608"/>
    </contour>
    <contour>
      <point x="144" y="112" type="line"/>
      <point x="2352" y="112" type="line"/>
      <point x="2352" y="0" type="line"/>
      <point x="144" y="0" type="line"/>
    </contour>
    <contour>
      <point x="688" y="3568" type="line"/>
      <point x="144" y="3568" type="line"/>
      <point x="144" y="3680" type="line"/>
      <point x="1808" y="3680" type="line"/>
      <point x="1808" y="0" type="line"/>
      <point x="688" y="0" type="line"/>
    </contour>
  </outline>
</glyph>
<glyph name="s" format="2">
  <advance width="1858"/>
  <unicode hex="0073"/>
  <outline>
    <contour>
      <point x="1492" y="1506" type="curve"/>
      <point x="1435" y="1593"/>
      <point x="1368" y="1667"/>
      <point x="1297" y="1739" type="curve"/>
      <point x="1540" y="1925" type="line"/>
      <point x="1586" y="1925" type="line"/>
      <point x="1586" y="1352" type="line"/>
      <point x="1533" y="1352" type="line"/>
      <point x="1527" y="1404"/>
      <point x="1514" y="1454"/>
    </contour>
    <contour>
      <point x="1576" y="1352" type="curve"/>
      <point x="1530" y="1352" type="line"/>
      <point x="1441" y="1594"/>
      <point x="1208" y="1860"/>
      <point x="852" y="1860" type="curve" smooth="yes"/>
      <point x="668" y="1860"/>
      <point x="494" y="1774"/>
      <point x="494" y="1600" type="curve" smooth="yes"/>
      <point x="494" y="1202"/>
      <point x="1714" y="1353"/>
      <point x="1714" y="598" type="curve" smooth="yes"/>
      <point x="1714" y="172"/>
      <point x="1353" y="-41"/>
      <point x="981" y="-41" type="curve" smooth="yes"/>
      <point x="580" y="-41"/>
      <point x="284" y="222"/>
      <point x="182" y="602" type="curve"/>
      <point x="228" y="602" type="line"/>
      <point x="344" y="254"/>
      <point x="626" y="20"/>
      <point x="954" y="20" type="curve" smooth="yes"/>
      <point x="1188" y="20"/>
      <point x="1402" y="111"/>
      <point x="1402" y="316" type="curve" smooth="yes"/>
      <point x="1402" y="733"/>
      <point x="220" y="548"/>
      <point x="220" y="1336" type="curve" smooth="yes"/>
      <point x="220" y="1660"/>
      <point x="461" y="1921"/>
      <point x="850" y="1921" type="curve" smooth="yes"/>
      <point x="1246" y="1921"/>
      <point x="1494" y="1622"/>
    </contour>
    <contour>
      <point x="217" y="-41" type="line"/>
      <point x="171" y="-41" type="line"/>
      <point x="171" y="602" type="line"/>
      <point x="226" y="602" type="line"/>
      <point x="228" y="531"/>
      <point x="243" y="469"/>
      <point x="266" y="416" type="curve"/>
      <point x="340" y="305"/>
      <point x="398" y="236"/>
      <point x="463" y="168" type="curve"/>
    </contour>
  </outline>
</glyph>
<glyph name="t" format="2">
  <advance width="1482"/>
  <unicode hex="0074"/>
  <outline>
    <contour>
      <point x="32" y="1884" type="line"/>
      <point x="1344" y="1884" type="line"/>
      <point x="1344" y="1827" type="line"/>
      <point x="32" y="1827" type="line"/>
    </contour>
    <contour>
      <point x="1466" y="418" type="line"/>
      <point x="1368" y="156"/>
      <point x="1139" y="-29"/>
      <point x="807" y="-29" type="curve" smooth="yes"/>
      <point x="409" y="-29"/>
      <point x="332" y="190"/>
      <point x="332" y="476" type="curve" smooth="yes"/>
      <point x="332" y="2294" type="line"/>
      <point x="516" y="2294"/>
      <point x="762" y="2335"/>
      <point x="906" y="2417" type="curve"/>
      <point x="906" y="391" type="line" smooth="yes"/>
      <point x="906" y="186"/>
      <point x="950" y="110"/>
      <point x="1061" y="110" type="curve" smooth="yes"/>
      <point x="1184" y="110"/>
      <point x="1338" y="242"/>
      <point x="1418" y="438" type="curve"/>
    </contour>
  </outline>
</glyph>
<glyph name="u" format="2">
  <advance width="2529"/>
  <unicode hex="0075"/>
  <outline>
    <contour>
      <point x="928" y="1884" type="line"/>
      <point x="928" y="608" type="line" smooth="yes"/>
      <point x="928" y="264"/>
      <point x="981" y="125"/>
      <point x="1153" y="125" type="curve" smooth="yes"/>
      <point x="1452" y="125"/>
      <point x="1604" y="567"/>
      <point x="1604" y="971" type="curve"/>
      <point x="1646" y="975" type="line"/>
      <point x="1646" y="561"/>
      <point x="1532" y="-41"/>
      <point x="936" y="-41" type="curve" smooth="yes"/>
      <point x="490" y="-41"/>
      <point x="354" y="222"/>
      <point x="354" y="578" type="curve" smooth="yes"/>
      <point x="354" y="1827" type="line"/>
      <point x="74" y="1827" type="line"/>
      <point x="74" y="1884" type="line"/>
    </contour>
    <contour>
      <point x="2177" y="57" type="line"/>
      <point x="2456" y="57" type="line"/>
      <point x="2456" y="0" type="line"/>
      <point x="1604" y="0" type="line"/>
      <point x="1604" y="1827" type="line"/>
      <point x="1337" y="1827" type="line"/>
      <point x="1337" y="1884" type="line"/>
      <point x="2177" y="1884" type="line"/>
    </contour>
  </outline>
</glyph>
<glyph name="v" format="2">
  <advance width="2334"/>
  <unicode hex="0076"/>
  <outline>
    <contour>
      <point x="2332" y="1827" type="line"/>
      <point x="1552" y="1827" type="line"/>
      <point x="1552" y="1884" type="line"/>
      <point x="2332" y="1884" type="line"/>
    </contour>
    <contour>
      <point x="1214" y="1827" type="line"/>
      <point x="-4" y="1827" type="line"/>
      <point x="-4" y="1884" type="line"/>
      <point x="1214" y="1884" type="line"/>
    </contour>
    <contour>
      <point x="1396" y="492" type="line"/>
      <point x="1954" y="1884" type="line"/>
      <point x="2030" y="1884" type="line"/>
      <point x="1256" y="-41" type="line"/>
      <point x="1046" y="-41" type="line"/>
      <point x="256" y="1884" type="line"/>
      <point x="891" y="1884" type="line"/>
    </contour>
  </outline>
</glyph>
<glyph name="w" format="2">
  <advance width="3362"/>
  <unicode hex="0077"/>
  <outline>
    <contour>
      <point x="1235" y="1827" type="line"/>
      <point x="-4" y="1827" type="line"/>
      <point x="-4" y="1884" type="line"/>
      <point x="1235" y="1884" type="line"/>
    </contour>
    <contour>
      <point x="3360" y="1827" type="line"/>
      <point x="2498" y="1827" type="line"/>
      <point x="2498" y="1884" type="line"/>
      <point x="3360" y="1884" type="line"/>
    </contour>
    <contour>
      <point x="1252" y="528" type="line"/>
      <point x="1808" y="1925" type="line"/>
      <point x="2120" y="1925" type="line"/>
      <point x="2519" y="612" type="line"/>
      <point x="2940" y="1884" type="line"/>
      <point x="3012" y="1884" type="line"/>
      <point x="2370" y="-41" type="line"/>
      <point x="2156" y="-41" type="line"/>
      <point x="1655" y="1362" type="line"/>
      <point x="1096" y="-41" type="line"/>
      <point x="882" y="-41" type="line"/>
      <point x="256" y="1884" type="line"/>
      <point x="866" y="1884" type="line"/>
    </contour>
  </outline>
</glyph>
<glyph name="x" format="2">
  <advance width="573"/>
  <unicode hex="0078"/>
  <outline>
    <contour>
      <point x="284" y="14" type="line"/>
      <point x="564" y="14" type="line"/>
      <point x="564" y="0" type="line"/>
      <point x="284" y="0" type="line"/>
    </contour>
    <contour>
      <point x="9" y="14" type="line"/>
      <point x="198" y="14" type="line"/>
      <point x="198" y="0" type="line"/>
      <point x="9" y="0" type="line"/>
    </contour>
    <contour>
      <point x="302" y="446" type="line"/>
      <point x="14" y="446" type="line"/>
      <point x="14" y="460" type="line"/>
      <point x="302" y="460" type="line"/>
    </contour>
    <contour>
      <point x="552" y="446" type="line"/>
      <point x="374" y="446" type="line"/>
      <point x="374" y="460" type="line"/>
      <point x="552" y="460" type="line"/>
    </contour>
    <contour>
      <point x="522" y="0" type="line"/>
      <point x="356" y="0" type="line"/>
      <point x="68" y="460" type="line"/>
      <point x="228" y="460" type="line"/>
    </contour>
    <contour>
      <point x="86" y="0" type="line"/>
      <point x="66" y="0" type="line"/>
      <point x="466" y="460" type="line"/>
      <point x="485" y="460" type="line"/>
    </contour>
  </outline>
</glyph>
<glyph name="y" format="2">
  <advance width="2426"/>
  <unicode hex="0079"/>
  <outline>
    <contour>
      <point x="1331" y="1827" type="line"/>
      <point x="-24" y="1827" type="line"/>
      <point x="-24" y="1884" type="line"/>
      <point x="1331" y="1884" type="line"/>
    </contour>
    <contour>
      <point x="2472" y="1827" type="line"/>
      <point x="1716" y="1827" type="line"/>
      <point x="1716" y="1884" type="line"/>
      <point x="2472" y="1884" type="line"/>
    </contour>
    <contour>
      <point x="1579" y="553" type="line"/>
      <point x="1243" y="-94" type="line"/>
      <point x="232" y="1884" type="line"/>
      <point x="908" y="1884" type="line"/>
    </contour>
    <contour>
      <point x="928" y="-717" type="curve"/>
      <point x="2148" y="1884" type="line"/>
      <point x="2226" y="1884" type="line"/>
      <point x="971" y="-778" type="line" smooth="yes"/>
      <point x="889" y="-948"/>
      <point x="784" y="-1054"/>
      <point x="608" y="-1054" type="curve" smooth="yes"/>
      <point x="444" y="-1054"/>
      <point x="284" y="-947"/>
      <point x="284" y="-750" type="curve" smooth="yes"/>
      <point x="284" y="-574"/>
      <point x="420" y="-426"/>
      <point x="612" y="-426" type="curve" smooth="yes"/>
      <point x="784" y="-426"/>
      <point x="918" y="-563"/>
    </contour>
  </outline>
</glyph>
<glyph name="z" format="2">
  <advance width="3808"/>
  <unicode hex="007A"/>
  <outline>
    <contour>
      <point x="1632" y="3568" type="line" smooth="yes"/>
      <point x="880" y="3568"/>
      <point x="560" y="3112"/>
      <point x="440" y="2304" type="curve"/>
      <point x="328" y="2304" type="line"/>
      <point x="328" y="3680" type="line"/>
      <point x="3536" y="3680" type="line"/>
      <point x="3536" y="3568" type="line"/>
      <point x="1368" y="112" type="line"/>
      <point x="2176" y="112" type="line" smooth="yes"/>
      <point x="3112" y="112"/>
      <point x="3440" y="480"/>
      <point x="3560" y="1472" type="curve"/>
      <point x="3664" y="1472" type="line"/>
      <point x="3664" y="0" type="line"/>
      <point x="104" y="0" type="line"/>
      <point x="104" y="112" type="line"/>
      <point x="2264" y="3568" type="line"/>
    </contour>
  </outline>
</glyph>
<glyph name="braceleft" format="2">
  <advance width="2656"/>
  <unicode hex="007B"/>
  <outline>
    <contour>
      <point x="2416" y="6240" type="curve"/>
      <point x="2416" y="6128" type="line"/>
      <point x="1920" y="6128"/>
      <point x="1664" y="5680"/>
      <point x="1664" y="5176" type="curve" smooth="yes"/>
      <point x="1664" y="4648"/>
      <point x="1936" y="4288"/>
      <point x="1936" y="3568" type="curve" smooth="yes"/>
      <point x="1936" y="2904"/>
      <point x="1512" y="2656"/>
      <point x="440" y="2496" type="curve"/>
      <point x="440" y="2576" type="line"/>
      <point x="680" y="2656"/>
      <point x="920" y="2840"/>
      <point x="920" y="3168" type="curve" smooth="yes"/>
      <point x="920" y="3672"/>
      <point x="440" y="4032"/>
      <point x="440" y="5048" type="curve" smooth="yes"/>
      <point x="440" y="5840"/>
      <point x="896" y="6240"/>
    </contour>
    <contour>
      <point x="2416" y="-1200" type="line"/>
      <point x="896" y="-1200"/>
      <point x="440" y="-792"/>
      <point x="440" y="0" type="curve" smooth="yes"/>
      <point x="440" y="1016"/>
      <point x="920" y="1376"/>
      <point x="920" y="1880" type="curve" smooth="yes"/>
      <point x="920" y="2208"/>
      <point x="680" y="2384"/>
      <point x="440" y="2464" type="curve"/>
      <point x="440" y="2552" type="line"/>
      <point x="1512" y="2392"/>
      <point x="1936" y="2144"/>
      <point x="1936" y="1480" type="curve" smooth="yes"/>
      <point x="1936" y="760"/>
      <point x="1664" y="400"/>
      <point x="1664" y="-128" type="curve" smooth="yes"/>
      <point x="1664" y="-632"/>
      <point x="1920" y="-1088"/>
      <point x="2416" y="-1088" type="curve"/>
    </contour>
  </outline>
</glyph>
<glyph name="asciitilde" format="2">
  <advance width="2818"/>
  <unicode hex="007E"/>
  <outline>
    <contour>
      <point x="844" y="1728" type="curve" smooth="yes"/>
      <point x="627" y="1728"/>
      <point x="467" y="1639"/>
      <point x="467" y="1405" type="curve"/>
      <point x="410" y="1405" type="line"/>
      <point x="410" y="1876"/>
      <point x="655" y="2150"/>
      <point x="1020" y="2150" type="curve" smooth="yes"/>
      <point x="1471" y="2150"/>
      <point x="1532" y="1766"/>
      <point x="1934" y="1766" type="curve" smooth="yes"/>
      <point x="2192" y="1766"/>
      <point x="2351" y="1855"/>
      <point x="2351" y="2089" type="curve"/>
      <point x="2408" y="2089" type="line"/>
      <point x="2408" y="1618"/>
      <point x="2163" y="1344"/>
      <point x="1798" y="1344" type="curve" smooth="yes"/>
      <point x="1278" y="1344"/>
      <point x="1274" y="1728"/>
    </contour>
  </outline>
</glyph>
<glyph name="cent" format="2">
  <advance width="2161"/>
  <unicode hex="00A2"/>
  <outline>
    <contour>
      <point x="1214" y="2274" type="line"/>
      <point x="1214" y="-348" type="line"/>
      <point x="1160" y="-348" type="line"/>
      <point x="1160" y="2274" type="line"/>
    </contour>
    <component base="c"/>
  </outline>
</glyph>
<glyph name="sterling" format="2">
  <advance width="656"/>
  <unicode hex="00A3"/>
  <outline>
    <contour>
      <point x="632" y="217" type="line"/>
      <point x="632" y="22"/>
      <point x="561" y="-30"/>
      <point x="447" y="-30" type="curve" smooth="yes"/>
      <point x="310" y="-30"/>
      <point x="250" y="30"/>
      <point x="187" y="30" type="curve" smooth="yes"/>
      <point x="146" y="30"/>
      <point x="96" y="10"/>
      <point x="86" y="-20" type="curve"/>
      <point x="78" y="-20" type="line"/>
      <point x="93" y="54"/>
      <point x="174" y="157"/>
      <point x="272" y="157" type="curve" smooth="yes"/>
      <point x="362" y="157"/>
      <point x="404" y="123"/>
      <point x="470" y="123" type="curve" smooth="yes"/>
      <point x="536" y="123"/>
      <point x="618" y="135"/>
      <point x="618" y="217" type="curve"/>
    </contour>
    <contour>
      <point x="465" y="404" type="line"/>
      <point x="465" y="390" type="line"/>
      <point x="15" y="390" type="line"/>
      <point x="15" y="404" type="line"/>
    </contour>
    <contour>
      <point x="98" y="550" type="curve" smooth="yes"/>
      <point x="98" y="690"/>
      <point x="208" y="760"/>
      <point x="384" y="760" type="curve" smooth="yes"/>
      <point x="546" y="760"/>
      <point x="632" y="666"/>
      <point x="632" y="584" type="curve" smooth="yes"/>
      <point x="632" y="528"/>
      <point x="596" y="489"/>
      <point x="548" y="489" type="curve" smooth="yes"/>
      <point x="503" y="489"/>
      <point x="456" y="520"/>
      <point x="456" y="575" type="curve" smooth="yes"/>
      <point x="456" y="625"/>
      <point x="499" y="660"/>
      <point x="543" y="660" type="curve" smooth="yes"/>
      <point x="571" y="660"/>
      <point x="586" y="644"/>
      <point x="592" y="638" type="curve"/>
      <point x="576" y="681"/>
      <point x="512" y="741"/>
      <point x="410" y="741" type="curve" smooth="yes"/>
      <point x="306" y="741"/>
      <point x="269" y="669"/>
      <point x="269" y="585" type="curve" smooth="yes"/>
      <point x="269" y="486"/>
      <point x="325" y="440"/>
      <point x="325" y="355" type="curve" smooth="yes"/>
      <point x="325" y="170"/>
      <point x="73" y="170"/>
      <point x="86" y="-20" type="curve"/>
      <point x="72" y="-20" type="line"/>
      <point x="53" y="119"/>
      <point x="179" y="197"/>
      <point x="179" y="261" type="curve" smooth="yes"/>
      <point x="179" y="375"/>
      <point x="98" y="435"/>
    </contour>
  </outline>
</glyph>
<glyph name="section" format="2">
  <advance width="1951"/>
  <unicode hex="00A7"/>
  <outline>
    <contour>
      <point x="554" y="2672" type="curve" smooth="yes"/>
      <point x="554" y="2218"/>
      <point x="1792" y="2214"/>
      <point x="1792" y="1587" type="curve" smooth="yes"/>
      <point x="1792" y="1292"/>
      <point x="1554" y="1190"/>
      <point x="1354" y="1064" type="curve"/>
      <point x="1309" y="1076" type="line"/>
      <point x="1391" y="1149"/>
      <point x="1472" y="1205"/>
      <point x="1472" y="1345" type="curve" smooth="yes"/>
      <point x="1472" y="1800"/>
      <point x="274" y="1704"/>
      <point x="274" y="2449" type="curve" smooth="yes"/>
      <point x="274" y="2875"/>
      <point x="633" y="3113"/>
      <point x="1022" y="3113" type="curve" smooth="yes"/>
      <point x="1362" y="3113"/>
      <point x="1776" y="2976"/>
      <point x="1776" y="2542" type="curve" smooth="yes"/>
      <point x="1776" y="2354"/>
      <point x="1652" y="2206"/>
      <point x="1468" y="2206" type="curve" smooth="yes"/>
      <point x="1304" y="2206"/>
      <point x="1186" y="2328"/>
      <point x="1186" y="2496" type="curve" smooth="yes"/>
      <point x="1186" y="2648"/>
      <point x="1320" y="2777"/>
      <point x="1480" y="2777" type="curve" smooth="yes"/>
      <point x="1564" y="2777"/>
      <point x="1637" y="2732"/>
      <point x="1662" y="2702" type="curve"/>
      <point x="1577" y="2936"/>
      <point x="1314" y="3054"/>
      <point x="1022" y="3054" type="curve" smooth="yes"/>
      <point x="782" y="3054"/>
      <point x="554" y="2892"/>
    </contour>
    <contour>
      <point x="1788" y="664" type="curve" smooth="yes"/>
      <point x="1788" y="238"/>
      <point x="1450" y="-41"/>
      <point x="938" y="-41" type="curve" smooth="yes"/>
      <point x="578" y="-41"/>
      <point x="123" y="103"/>
      <point x="123" y="537" type="curve" smooth="yes"/>
      <point x="123" y="725"/>
      <point x="246" y="872"/>
      <point x="430" y="872" type="curve" smooth="yes"/>
      <point x="594" y="872"/>
      <point x="713" y="750"/>
      <point x="713" y="582" type="curve" smooth="yes"/>
      <point x="713" y="430"/>
      <point x="582" y="310"/>
      <point x="422" y="310" type="curve" smooth="yes"/>
      <point x="330" y="310"/>
      <point x="258" y="362"/>
      <point x="238" y="392" type="curve"/>
      <point x="323" y="134"/>
      <point x="632" y="18"/>
      <point x="938" y="18" type="curve" smooth="yes"/>
      <point x="1319" y="18"/>
      <point x="1479" y="238"/>
      <point x="1479" y="414" type="curve" smooth="yes"/>
      <point x="1479" y="868"/>
      <point x="197" y="828"/>
      <point x="197" y="1434" type="curve" smooth="yes"/>
      <point x="197" y="1750"/>
      <point x="438" y="1922"/>
      <point x="598" y="2028" type="curve"/>
      <point x="655" y="2028" type="line"/>
      <point x="613" y="1979"/>
      <point x="533" y="1900"/>
      <point x="533" y="1748" type="curve" smooth="yes"/>
      <point x="533" y="1293"/>
      <point x="1788" y="1409"/>
    </contour>
  </outline>
</glyph>
<glyph name="copyright" format="2">
  <advance width="870"/>
  <unicode hex="00A9"/>
  <outline>
    <contour>
      <point x="50" y="375" type="curve" smooth="yes"/>
      <point x="50" y="588"/>
      <point x="222" y="760"/>
      <point x="435" y="760" type="curve" smooth="yes"/>
      <point x="648" y="760"/>
      <point x="820" y="588"/>
      <point x="820" y="375" type="curve" smooth="yes"/>
      <point x="820" y="162"/>
      <point x="648" y="-10"/>
      <point x="435" y="-10" type="curve" smooth="yes"/>
      <point x="222" y="-10"/>
      <point x="50" y="162"/>
    </contour>
    <contour>
      <point x="64" y="375" type="curve" smooth="yes"/>
      <point x="64" y="170"/>
      <point x="230" y="4"/>
      <point x="435" y="4" type="curve" smooth="yes"/>
      <point x="640" y="4"/>
      <point x="806" y="170"/>
      <point x="806" y="375" type="curve" smooth="yes"/>
      <point x="806" y="580"/>
      <point x="640" y="746"/>
      <point x="435" y="746" type="curve" smooth="yes"/>
      <point x="230" y="746"/>
      <point x="64" y="580"/>
    </contour>
    <component base="C" xScale="0.6" yScale="0.6" xOffset="202" yOffset="150"/>
  </outline>
</glyph>
<glyph name="guillemotleft" format="2">
  <advance width="2969"/>
  <unicode hex="00AB"/>
  <outline>
    <contour>
      <point x="2011" y="1589" type="line"/>
      <point x="2752" y="623" type="line"/>
      <point x="2724" y="594" type="line"/>
      <point x="1249" y="1544" type="line"/>
      <point x="1249" y="1630" type="line"/>
      <point x="2724" y="2580" type="line"/>
      <point x="2752" y="2552" type="line"/>
    </contour>
    <contour>
      <point x="823" y="1589" type="line"/>
      <point x="1606" y="623" type="line"/>
      <point x="1577" y="594" type="line"/>
      <point x="102" y="1544" type="line"/>
      <point x="102" y="1630" type="line"/>
      <point x="1577" y="2580" type="line"/>
      <point x="1606" y="2552" type="line"/>
    </contour>
  </outline>
</glyph>
<glyph name="registered" format="2">
  <advance width="3562"/>
  <unicode hex="00AE"/>
  <outline>
    <contour>
      <point x="204" y="1536" type="curve" smooth="yes"/>
      <point x="204" y="2408"/>
      <point x="910" y="3112"/>
      <point x="1782" y="3112" type="curve" smooth="yes"/>
      <point x="2654" y="3112"/>
      <point x="3358" y="2408"/>
      <point x="3358" y="1536" type="curve" smooth="yes"/>
      <point x="3358" y="664"/>
      <point x="2654" y="-40"/>
      <point x="1782" y="-40" type="curve" smooth="yes"/>
      <point x="910" y="-40"/>
      <point x="204" y="664"/>
    </contour>
    <contour>
      <point x="260" y="1536" type="curve" smooth="yes"/>
      <point x="260" y="696"/>
      <point x="942" y="15"/>
      <point x="1782" y="15" type="curve" smooth="yes"/>
      <point x="2622" y="15"/>
      <point x="3303" y="696"/>
      <point x="3303" y="1536" type="curve" smooth="yes"/>
      <point x="3303" y="2376"/>
      <point x="2622" y="3057"/>
      <point x="1782" y="3057" type="curve" smooth="yes"/>
      <point x="942" y="3057"/>
      <point x="260" y="2376"/>
    </contour>
    <component base="R" xScale="0.6" yScale="0.6" xOffset="902" yOffset="606"/>
  </outline>
</glyph>
<glyph name="degree" format="2">
  <advance width="1310"/>
  <unicode hex="00B0"/>
  <outline>
    <contour>
      <point x="164" y="2786" type="curve" smooth="yes"/>
      <point x="164" y="3056"/>
      <point x="386" y="3276"/>
      <point x="656" y="3276" type="curve" smooth="yes"/>
      <point x="926" y="3276"/>
      <point x="1146" y="3056"/>
      <point x="1146" y="2786" type="curve" smooth="yes"/>
      <point x="1146" y="2516"/>
      <point x="926" y="2294"/>
      <point x="656" y="2294" type="curve" smooth="yes"/>
      <point x="386" y="2294"/>
      <point x="164" y="2516"/>
    </contour>
    <contour>
      <point x="294" y="2786" type="curve" smooth="yes"/>
      <point x="294" y="2579"/>
      <point x="449" y="2424"/>
      <point x="656" y="2424" type="curve" smooth="yes"/>
      <point x="863" y="2424"/>
      <point x="1016" y="2579"/>
      <point x="1016" y="2786" type="curve" smooth="yes"/>
      <point x="1016" y="2993"/>
      <point x="863" y="3146"/>
      <point x="656" y="3146" type="curve" smooth="yes"/>
      <point x="449" y="3146"/>
      <point x="294" y="2993"/>
    </contour>
  </outline>
</glyph>
<glyph name="acute" format="2">
  <advance width="1678"/>
  <unicode hex="00B4"/>
  <outline>
    <contour>
      <point x="1188" y="2867" type="curve" smooth="yes"/>
      <point x="246" y="2940" type="line"/>
      <point x="231" y="2998" type="line"/>
      <point x="1146" y="3310" type="line" smooth="yes"/>
      <point x="1306" y="3370"/>
      <point x="1454" y="3232"/>
      <point x="1454" y="3092" type="curve" smooth="yes"/>
      <point x="1454" y="2952"/>
      <point x="1328" y="2849"/>
    </contour>
  </outline>
</glyph>
<glyph name="mu" format="2">
  <advance width="2478"/>
  <unicode hex="00B5"/>
  <outline>
    <contour>
      <point x="1056" y="-504" type="curve" smooth="yes"/>
      <point x="1191" y="-504"/>
      <point x="1298" y="-622"/>
      <point x="1298" y="-778" type="curve" smooth="yes"/>
      <point x="1298" y="-938"/>
      <point x="1213" y="-1065"/>
      <point x="914" y="-1065" type="curve" smooth="yes"/>
      <point x="627" y="-1065"/>
      <point x="381" y="-865"/>
      <point x="381" y="-496" type="curve" smooth="yes"/>
      <point x="381" y="1315" type="line"/>
      <point x="436" y="1315" type="line"/>
      <point x="436" y="-496" type="line" smooth="yes"/>
      <point x="436" y="-840"/>
      <point x="649" y="-1016"/>
      <point x="952" y="-1016" type="curve"/>
      <point x="952" y="-1016" type="line"/>
      <point x="846" y="-942"/>
      <point x="813" y="-839"/>
      <point x="813" y="-737" type="curve" smooth="yes"/>
      <point x="813" y="-602"/>
      <point x="921" y="-504"/>
    </contour>
    <component base="u"/>
  </outline>
</glyph>
<glyph name="cedilla" format="2">
  <advance width="2252"/>
  <unicode hex="00B8"/>
  <outline>
    <contour>
      <point x="1266" y="-573" type="curve" smooth="yes"/>
      <point x="1266" y="-356"/>
      <point x="1093" y="-324"/>
      <point x="889" y="-324" type="curve"/>
      <point x="1257" y="168" type="line"/>
      <point x="1335" y="168" type="line"/>
      <point x="1090" y="-160" type="line"/>
      <point x="1460" y="-172"/>
      <point x="1720" y="-263"/>
      <point x="1720" y="-492" type="curve" smooth="yes"/>
      <point x="1720" y="-697"/>
      <point x="1523" y="-889"/>
      <point x="905" y="-889" type="curve"/>
      <point x="905" y="-832" type="line"/>
      <point x="1147" y="-832"/>
      <point x="1266" y="-721"/>
    </contour>
  </outline>
</glyph>
<glyph name="AE" format="2">
  <advance width="8360"/>
  <unicode hex="00C6"/>
  <outline>
    <contour>
      <point x="4200" y="6000" type="line"/>
      <point x="4328" y="6000" type="line"/>
      <point x="896" y="0" type="line"/>
      <point x="744" y="0" type="line"/>
    </contour>
    <contour>
      <point x="120" y="112" type="line"/>
      <point x="1880" y="112" type="line"/>
      <point x="1880" y="0" type="line"/>
      <point x="120" y="0" type="line"/>
    </contour>
    <contour>
      <point x="1968" y="2016" type="line"/>
      <point x="4280" y="2016" type="line"/>
      <point x="4280" y="1904" type="line"/>
      <point x="1968" y="1904" type="line"/>
    </contour>
    <contour>
      <point x="4200" y="6000" type="line"/>
      <point x="5440" y="6000" type="line"/>
      <point x="5440" y="0" type="line"/>
      <point x="4200" y="0" type="line"/>
    </contour>
    <contour>
      <point x="4200" y="6000" type="line"/>
      <point x="8040" y="6000" type="line"/>
      <point x="8040" y="4360" type="line"/>
      <point x="7928" y="4360" type="line"/>
      <point x="7808" y="5216"/>
      <point x="7296" y="5888"/>
      <point x="6400" y="5888" type="curve" smooth="yes"/>
      <point x="4200" y="5888" type="line"/>
    </contour>
    <contour>
      <point x="8120" y="0" type="line"/>
      <point x="3480" y="0" type="line"/>
      <point x="3480" y="112" type="line"/>
      <point x="6320" y="112" type="line" smooth="yes"/>
      <point x="7376" y="112"/>
      <point x="7888" y="784"/>
      <point x="8008" y="1800" type="curve"/>
      <point x="8120" y="1800" type="line"/>
    </contour>
    <contour>
      <point x="6688" y="2104" type="line"/>
      <point x="6568" y="2640"/>
      <point x="6176" y="3048"/>
      <point x="5720" y="3048" type="curve" smooth="yes"/>
      <point x="5240" y="3048" type="line"/>
      <point x="5240" y="3160" type="line"/>
      <point x="5720" y="3160" type="line" smooth="yes"/>
      <point x="6176" y="3160"/>
      <point x="6568" y="3528"/>
      <point x="6688" y="4064" type="curve"/>
      <point x="6800" y="4064" type="line"/>
      <point x="6800" y="2104" type="line"/>
    </contour>
  </outline>
</glyph>
<glyph name="germandbls" format="2">
  <advance width="3157"/>
  <unicode hex="00DF"/>
  <outline>
    <contour>
      <point x="1650" y="1647" type="curve"/>
      <point x="1650" y="1688" type="line"/>
      <point x="2096" y="1688"/>
      <point x="2212" y="2077"/>
      <point x="2212" y="2339" type="curve" smooth="yes"/>
      <point x="2212" y="2634"/>
      <point x="2098" y="3064"/>
      <point x="1692" y="3064" type="curve" smooth="yes"/>
      <point x="1184" y="3064"/>
      <point x="1044" y="2552"/>
      <point x="1044" y="1970" type="curve" smooth="yes"/>
      <point x="1044" y="0" type="line"/>
      <point x="430" y="0" type="line"/>
      <point x="430" y="2011" type="line" smooth="yes"/>
      <point x="430" y="2761"/>
      <point x="1044" y="3113"/>
      <point x="1712" y="3113" type="curve" smooth="yes"/>
      <point x="2298" y="3113"/>
      <point x="2872" y="2822"/>
      <point x="2872" y="2380" type="curve" smooth="yes"/>
      <point x="2872" y="1929"/>
      <point x="2473" y="1647"/>
    </contour>
    <contour>
      <point x="61" y="57" type="line"/>
      <point x="1413" y="57" type="line"/>
      <point x="1413" y="0" type="line"/>
      <point x="61" y="0" type="line"/>
    </contour>
    <contour>
      <point x="2994" y="716" type="curve" smooth="yes"/>
      <point x="2994" y="224"/>
      <point x="2528" y="-41"/>
      <point x="2032" y="-41" type="curve" smooth="yes"/>
      <point x="1659" y="-41"/>
      <point x="1384" y="221"/>
      <point x="1384" y="639" type="curve" smooth="yes"/>
      <point x="1384" y="869"/>
      <point x="1557" y="987"/>
      <point x="1741" y="987" type="curve" smooth="yes"/>
      <point x="1905" y="987"/>
      <point x="2064" y="884"/>
      <point x="2064" y="676" type="curve" smooth="yes"/>
      <point x="2064" y="484"/>
      <point x="1888" y="369"/>
      <point x="1728" y="369" type="curve" smooth="yes"/>
      <point x="1640" y="369"/>
      <point x="1522" y="414"/>
      <point x="1479" y="492" type="curve"/>
      <point x="1505" y="226"/>
      <point x="1741" y="26"/>
      <point x="1970" y="26" type="curve" smooth="yes"/>
      <point x="2274" y="26"/>
      <point x="2335" y="393"/>
      <point x="2335" y="655" type="curve" smooth="yes"/>
      <point x="2335" y="1040"/>
      <point x="2260" y="1634"/>
      <point x="1650" y="1634" type="curve"/>
      <point x="1650" y="1675" type="line"/>
      <point x="2637" y="1675"/>
      <point x="2994" y="1248"/>
    </contour>
  </outline>
</glyph>
<glyph name="ae" format="2">
  <advance width="6664"/>
  <unicode hex="00E6"/>
  <outline>
    <contour>
      <point x="560" y="2888" type="curve" smooth="yes"/>
      <point x="560" y="3400"/>
      <point x="1256" y="3744"/>
      <point x="2064" y="3744" type="curve" smooth="yes"/>
      <point x="3104" y="3744"/>
      <point x="3528" y="3168"/>
      <point x="3528" y="2440" type="curve"/>
      <point x="3488" y="1448" type="line"/>
      <point x="3488" y="456"/>
      <point x="2688" y="-80"/>
      <point x="1760" y="-80" type="curve" smooth="yes"/>
      <point x="888" y="-80"/>
      <point x="280" y="232"/>
      <point x="280" y="904" type="curve" smooth="yes"/>
      <point x="280" y="1576"/>
      <point x="896" y="2080"/>
      <point x="2032" y="2080" type="curve" smooth="yes"/>
      <point x="3264" y="2080" type="line"/>
      <point x="3264" y="1968" type="line"/>
      <point x="2312" y="1968" type="line" smooth="yes"/>
      <point x="1824" y="1968"/>
      <point x="1496" y="1536"/>
      <point x="1496" y="960" type="curve" smooth="yes"/>
      <point x="1496" y="424"/>
      <point x="1680" y="48"/>
      <point x="2000" y="48" type="curve" smooth="yes"/>
      <point x="2336" y="48"/>
      <point x="2608" y="520"/>
      <point x="2608" y="1248" type="curve" smooth="yes"/>
      <point x="2608" y="2440" type="line" smooth="yes"/>
      <point x="2608" y="2976"/>
      <point x="2496" y="3616"/>
      <point x="1856" y="3616" type="curve" smooth="yes"/>
      <point x="1536" y="3616"/>
      <point x="1256" y="3512"/>
      <point x="1112" y="3384" type="curve"/>
      <point x="1464" y="3480"/>
      <point x="1848" y="3280"/>
      <point x="1848" y="2904" type="curve" smooth="yes"/>
      <point x="1848" y="2544"/>
      <point x="1496" y="2328"/>
      <point x="1176" y="2328" type="curve" smooth="yes"/>
      <point x="816" y="2328"/>
      <point x="560" y="2560"/>
    </contour>
    <contour>
      <point x="5264" y="2128" type="line"/>
      <point x="5256" y="2800"/>
      <point x="5216" y="3648"/>
      <point x="4704" y="3648" type="curve" smooth="yes"/>
      <point x="4152" y="3648"/>
      <point x="4000" y="2832"/>
      <point x="4000" y="1920" type="curve" smooth="yes"/>
      <point x="4000" y="1008"/>
      <point x="4152" y="64"/>
      <point x="4928" y="64" type="curve" smooth="yes"/>
      <point x="5632" y="64"/>
      <point x="6152" y="520"/>
      <point x="6352" y="1144" type="curve"/>
      <point x="6464" y="1144" type="line"/>
      <point x="6256" y="448"/>
      <point x="5688" y="-80"/>
      <point x="4720" y="-80" type="curve" smooth="yes"/>
      <point x="3712" y="-80"/>
      <point x="3000" y="600"/>
      <point x="3000" y="1840" type="curve" smooth="yes"/>
      <point x="3000" y="3080"/>
      <point x="3696" y="3760"/>
      <point x="4704" y="3760" type="curve" smooth="yes"/>
      <point x="5896" y="3760"/>
      <point x="6456" y="2888"/>
      <point x="6456" y="2016" type="curve"/>
      <point x="3520" y="2016" type="line"/>
      <point x="3520" y="2128" type="line"/>
    </contour>
  </outline>
</glyph>
<glyph name="eth" format="2">
  <advance width="610"/>
  <unicode hex="00F0"/>
  <outline>
    <contour>
      <point x="130" y="630" type="line"/>
      <point x="575" y="630" type="line"/>
      <point x="575" y="616" type="line"/>
      <point x="130" y="616" type="line"/>
    </contour>
    <contour>
      <point x="560" y="310" type="curve" smooth="yes"/>
      <point x="560" y="100"/>
      <point x="452" y="-10"/>
      <point x="291" y="-10" type="curve" smooth="yes"/>
      <point x="130" y="-10"/>
      <point x="30" y="100"/>
      <point x="30" y="250" type="curve" smooth="yes"/>
      <point x="30" y="420"/>
      <point x="153" y="492"/>
      <point x="264" y="492" type="curve" smooth="yes"/>
      <point x="380" y="492"/>
      <point x="405" y="402"/>
      <point x="405" y="280" type="curve"/>
      <point x="395" y="280" type="line"/>
      <point x="395" y="410"/>
      <point x="356" y="468"/>
      <point x="294" y="468" type="curve" smooth="yes"/>
      <point x="230" y="468"/>
      <point x="195" y="409"/>
      <point x="195" y="250" type="curve" smooth="yes"/>
      <point x="195" y="111"/>
      <point x="209" y="4"/>
      <point x="288" y="4" type="curve" smooth="yes"/>
      <point x="367" y="4"/>
      <point x="395" y="121"/>
      <point x="395" y="280" type="curve"/>
      <point x="396" y="354" type="line"/>
      <point x="396" y="532"/>
      <point x="284" y="748"/>
      <point x="105" y="748" type="curve"/>
      <point x="105" y="760" type="line"/>
      <point x="363" y="760"/>
      <point x="560" y="562"/>
    </contour>
  </outline>
</glyph>
<glyph name="divide" format="2">
  <advance width="2498"/>
  <unicode hex="00F7"/>
  <outline>
    <contour>
      <point x="184" y="1647" type="line"/>
      <point x="2314" y="1647" type="line"/>
      <point x="2314" y="1590" type="line"/>
      <point x="184" y="1590" type="line"/>
    </contour>
    <contour>
      <point x="880" y="799" type="curve" smooth="yes"/>
      <point x="880" y="1001"/>
      <point x="1047" y="1168"/>
      <point x="1249" y="1168" type="curve" smooth="yes"/>
      <point x="1451" y="1168"/>
      <point x="1618" y="1001"/>
      <point x="1618" y="799" type="curve" smooth="yes"/>
      <point x="1618" y="597"/>
      <point x="1451" y="430"/>
      <point x="1249" y="430" type="curve" smooth="yes"/>
      <point x="1047" y="430"/>
      <point x="880" y="597"/>
    </contour>
    <contour>
      <point x="880" y="2376" type="curve" smooth="yes"/>
      <point x="880" y="2578"/>
      <point x="1047" y="2744"/>
      <point x="1249" y="2744" type="curve" smooth="yes"/>
      <point x="1451" y="2744"/>
      <point x="1618" y="2578"/>
      <point x="1618" y="2376" type="curve" smooth="yes"/>
      <point x="1618" y="2174"/>
      <point x="1451" y="2007"/>
      <point x="1249" y="2007" type="curve" smooth="yes"/>
      <point x="1047" y="2007"/>
      <point x="880" y="2174"/>
    </contour>
  </outline>
</glyph>
<glyph name="thorn" format="2">
  <advance width="4984"/>
  <unicode hex="00FE"/>
  <outline>
    <contour>
      <point x="1720" y="1840" type="curve" smooth="yes"/>
      <point x="1720" y="3056"/>
      <point x="2184" y="3752"/>
      <point x="3048" y="3752" type="curve" smooth="yes"/>
      <point x="3920" y="3752"/>
      <point x="4744" y="3040"/>
      <point x="4744" y="1840" type="curve" smooth="yes"/>
      <point x="4744" y="640"/>
      <point x="3920" y="-80"/>
      <point x="3048" y="-80" type="curve" smooth="yes"/>
      <point x="2184" y="-80"/>
      <point x="1720" y="624"/>
    </contour>
    <contour>
      <point x="1800" y="1840" type="curve" smooth="yes"/>
      <point x="1800" y="656"/>
      <point x="2328" y="120"/>
      <point x="2752" y="120" type="curve" smooth="yes"/>
      <point x="3248" y="120"/>
      <point x="3464" y="736"/>
      <point x="3464" y="1840" type="curve" smooth="yes"/>
      <point x="3464" y="2944"/>
      <point x="3264" y="3552"/>
      <point x="2768" y="3552" type="curve" smooth="yes"/>
      <point x="2320" y="3552"/>
      <point x="1800" y="3024"/>
    </contour>
    <contour>
      <point x="120" y="-1888" type="line"/>
      <point x="2360" y="-1888" type="line"/>
      <point x="2360" y="-2000" type="line"/>
      <point x="120" y="-2000" type="line"/>
    </contour>
    <contour>
      <point x="680" y="5888" type="line"/>
      <point x="120" y="5888" type="line"/>
      <point x="120" y="6000" type="line"/>
      <point x="1800" y="6000" type="line"/>
      <point x="1800" y="-2000" type="line"/>
      <point x="680" y="-2000" type="line"/>
    </contour>
  </outline>
</glyph>
<glyph name="Dcroat" format="2">
  <advance width="3102"/>
  <unicode hex="0110"/>
  <outline>
    <contour>
      <point x="440" y="3072" type="line"/>
      <point x="1076" y="3072" type="line"/>
      <point x="1076" y="0" type="line"/>
      <point x="440" y="0" type="line"/>
    </contour>
    <contour>
      <point x="1382" y="0" type="curve" smooth="yes"/>
      <point x="72" y="0" type="line"/>
      <point x="72" y="57" type="line"/>
      <point x="1382" y="57" type="line" smooth="yes"/>
      <point x="2013" y="57"/>
      <point x="2222" y="730"/>
      <point x="2222" y="1536" type="curve" smooth="yes"/>
      <point x="2222" y="2342"/>
      <point x="1972" y="3015"/>
      <point x="1382" y="3015" type="curve" smooth="yes"/>
      <point x="72" y="3015" type="line"/>
      <point x="72" y="3072" type="line"/>
      <point x="1382" y="3072" type="line" smooth="yes"/>
      <point x="2356" y="3072"/>
      <point x="2938" y="2449"/>
      <point x="2938" y="1536" type="curve" smooth="yes"/>
      <point x="2938" y="623"/>
      <point x="2316" y="0"/>
    </contour>
    <contour>
      <point x="72" y="1524" type="line"/>
      <point x="1494" y="1524" type="line"/>
      <point x="1494" y="1467" type="line"/>
      <point x="72" y="1467" type="line"/>
    </contour>
  </outline>
</glyph>
<glyph name="dotlessi" format="2">
  <advance width="2560"/>
  <unicode hex="0131"/>
  <outline>
    <contour>
      <point x="160" y="112" type="line"/>
      <point x="2400" y="112" type="line"/>
      <point x="2400" y="0" type="line"/>
      <point x="160" y="0" type="line"/>
    </contour>
    <contour>
      <point x="720" y="3568" type="line"/>
      <point x="160" y="3568" type="line"/>
      <point x="160" y="3680" type="line"/>
      <point x="1840" y="3680" type="line"/>
      <point x="1840" y="0" type="line"/>
      <point x="720" y="0" type="line"/>
    </contour>
  </outline>
</glyph>
<glyph name="kgreenlandic" format="2">
  <advance width="5256"/>
  <unicode hex="0138"/>
  <outline>
    <contour>
      <point x="4720" y="0" type="line"/>
      <point x="3336" y="0" type="line"/>
      <point x="1752" y="2128" type="line"/>
      <point x="3928" y="3680" type="line"/>
      <point x="4104" y="3680" type="line"/>
      <point x="2696" y="2640" type="line"/>
    </contour>
    <contour>
      <point x="2768" y="112" type="line"/>
      <point x="5024" y="112" type="line"/>
      <point x="5024" y="0" type="line"/>
      <point x="2768" y="0" type="line"/>
    </contour>
    <contour>
      <point x="4632" y="3568" type="line"/>
      <point x="2848" y="3568" type="line"/>
      <point x="2848" y="3680" type="line"/>
      <point x="4632" y="3680" type="line"/>
    </contour>
    <contour>
      <point x="136" y="112" type="line"/>
      <point x="2416" y="112" type="line"/>
      <point x="2416" y="0" type="line"/>
      <point x="136" y="0" type="line"/>
    </contour>
    <contour>
      <point x="856" y="3568" type="line"/>
      <point x="136" y="3568" type="line"/>
      <point x="136" y="3680" type="line"/>
      <point x="1976" y="3680" type="line"/>
      <point x="1976" y="0" type="line"/>
      <point x="856" y="0" type="line"/>
    </contour>
  </outline>
</glyph>
<glyph name="Lslash" format="2">
  <advance width="2518"/>
  <unicode hex="0141"/>
  <outline>
    <contour>
      <point x="61" y="1475" type="line"/>
      <point x="1680" y="2376" type="line"/>
      <point x="1680" y="2306" type="line"/>
      <point x="61" y="1405" type="line"/>
    </contour>
    <component base="L"/>
  </outline>
</glyph>
<glyph name="lslash" format="2">
  <advance width="1443"/>
  <unicode hex="0142"/>
  <outline>
    <contour>
      <point x="53" y="1556" type="line"/>
      <point x="1426" y="2376" type="line"/>
      <point x="1426" y="2304" type="line"/>
      <point x="53" y="1485" type="line"/>
    </contour>
    <component base="l"/>
  </outline>
</glyph>
<glyph name="OE" format="2">
  <advance width="4065"/>
  <unicode hex="0152"/>
  <outline>
    <contour>
      <point x="1642" y="3015" type="move"/>
    </contour>
    <contour>
      <point x="880" y="1536" type="curve" smooth="yes"/>
      <point x="880" y="730"/>
      <point x="1072" y="57"/>
      <point x="1642" y="57" type="curve"/>
      <point x="1560" y="0" type="line"/>
      <point x="729" y="0"/>
      <point x="164" y="623"/>
      <point x="164" y="1536" type="curve" smooth="yes"/>
      <point x="164" y="2449"/>
      <point x="729" y="3072"/>
      <point x="1560" y="3072" type="curve"/>
      <point x="1642" y="3015" type="line"/>
      <point x="1072" y="3015"/>
      <point x="880" y="2342"/>
    </contour>
    <component base="E" xOffset="1495"/>
  </outline>
</glyph>
<glyph name="uni0237" format="2">
  <advance width="1312"/>
  <unicode hex="0237"/>
  <outline>
    <contour>
      <point x="1012" y="1884" type="line"/>
      <point x="1012" y="-49" type="line" smooth="yes"/>
      <point x="1012" y="-586"/>
      <point x="696" y="-1065"/>
      <point x="123" y="-1065" type="curve" smooth="yes"/>
      <point x="-250" y="-1065"/>
      <point x="-504" y="-856"/>
      <point x="-504" y="-584" type="curve" smooth="yes"/>
      <point x="-504" y="-375"/>
      <point x="-350" y="-242"/>
      <point x="-168" y="-242" type="curve" smooth="yes"/>
      <point x="-4" y="-242"/>
      <point x="164" y="-340"/>
      <point x="164" y="-545" type="curve" smooth="yes"/>
      <point x="164" y="-746"/>
      <point x="25" y="-856"/>
      <point x="-192" y="-856" type="curve" smooth="yes"/>
      <point x="-264" y="-856"/>
      <point x="-318" y="-813"/>
      <point x="-324" y="-770" type="curve"/>
      <point x="-306" y="-870"/>
      <point x="-152" y="-1000"/>
      <point x="78" y="-1000" type="curve" smooth="yes"/>
      <point x="508" y="-1000"/>
      <point x="434" y="-436"/>
      <point x="434" y="84" type="curve" smooth="yes"/>
      <point x="438" y="1827" type="line"/>
      <point x="70" y="1827" type="line"/>
      <point x="70" y="1884" type="line"/>
    </contour>
  </outline>
</glyph>
<glyph name="caron" format="2">
  <advance width="1740"/>
  <unicode hex="02C7"/>
  <outline>
    <contour>
      <point x="870" y="2928" type="line"/>
      <point x="1507" y="3222" type="line"/>
      <point x="1536" y="3194" type="line"/>
      <point x="1045" y="2642" type="line"/>
      <point x="696" y="2642" type="line"/>
      <point x="204" y="3194" type="line"/>
      <point x="234" y="3222" type="line"/>
    </contour>
  </outline>
</glyph>
<glyph name="ring" format="2">
  <advance width="320"/>
  <unicode hex="02DA"/>
  <outline>
    <contour>
      <point x="60" y="680" type="curve" smooth="yes"/>
      <point x="60" y="731"/>
      <point x="99" y="770"/>
      <point x="160" y="770" type="curve" smooth="yes"/>
      <point x="221" y="770"/>
      <point x="260" y="731"/>
      <point x="260" y="680" type="curve" smooth="yes"/>
      <point x="260" y="629"/>
      <point x="221" y="590"/>
      <point x="160" y="590" type="curve" smooth="yes"/>
      <point x="99" y="590"/>
      <point x="60" y="629"/>
    </contour>
    <contour>
      <point x="120" y="680" type="curve" smooth="yes"/>
      <point x="120" y="631"/>
      <point x="131" y="604"/>
      <point x="160" y="604" type="curve" smooth="yes"/>
      <point x="189" y="604"/>
      <point x="200" y="631"/>
      <point x="200" y="680" type="curve" smooth="yes"/>
      <point x="200" y="729"/>
      <point x="189" y="756"/>
      <point x="160" y="756" type="curve" smooth="yes"/>
      <point x="131" y="756"/>
      <point x="120" y="729"/>
    </contour>
  </outline>
</glyph>
<glyph name="ogonek" format="2">
  <advance width="4400"/>
  <unicode hex="02DB"/>
  <outline>
    <contour>
      <point x="3200" y="-984" type="line"/>
      <point x="3080" y="-1208"/>
      <point x="2896" y="-1568"/>
      <point x="2208" y="-1568" type="curve" smooth="yes"/>
      <point x="1680" y="-1568"/>
      <point x="1216" y="-1360"/>
      <point x="1216" y="-880" type="curve" smooth="yes"/>
      <point x="1216" y="-240"/>
      <point x="2000" y="168"/>
      <point x="2608" y="344" type="curve"/>
      <point x="2640" y="280" type="line"/>
      <point x="2472" y="184"/>
      <point x="2288" y="-168"/>
      <point x="2288" y="-632" type="curve" smooth="yes"/>
      <point x="2288" y="-1064"/>
      <point x="2424" y="-1320"/>
      <point x="2656" y="-1320" type="curve" smooth="yes"/>
      <point x="2880" y="-1320"/>
      <point x="3016" y="-1136"/>
      <point x="3120" y="-944" type="curve"/>
    </contour>
  </outline>
</glyph>
<glyph name="tilde" format="2">
  <advance width="1835"/>
  <unicode hex="02DC"/>
  <outline>
    <contour>
      <point x="496" y="2678" type="curve" smooth="yes"/>
      <point x="367" y="2678"/>
      <point x="262" y="2590"/>
      <point x="262" y="2438" type="curve"/>
      <point x="205" y="2438" type="line"/>
      <point x="205" y="2786"/>
      <point x="348" y="3040"/>
      <point x="610" y="3040" type="curve" smooth="yes"/>
      <point x="938" y="3040"/>
      <point x="1082" y="2716"/>
      <point x="1340" y="2716" type="curve" smooth="yes"/>
      <point x="1478" y="2716"/>
      <point x="1573" y="2806"/>
      <point x="1573" y="2958" type="curve"/>
      <point x="1630" y="2958" type="line"/>
      <point x="1630" y="2569"/>
      <point x="1570" y="2356"/>
      <point x="1266" y="2356" type="curve" smooth="yes"/>
      <point x="951" y="2356"/>
      <point x="782" y="2678"/>
    </contour>
  </outline>
</glyph>
<glyph name="pi" format="2">
  <advance width="2584"/>
  <unicode hex="03C0"/>
  <outline>
    <contour>
      <point x="2441" y="422" type="line"/>
      <point x="2347" y="135"/>
      <point x="2183" y="-41"/>
      <point x="1896" y="-41" type="curve" smooth="yes"/>
      <point x="1622" y="-41"/>
      <point x="1417" y="78"/>
      <point x="1417" y="340" type="curve" smooth="yes"/>
      <point x="1417" y="1720" type="line"/>
      <point x="1990" y="1720" type="line"/>
      <point x="1990" y="364" type="line" smooth="yes"/>
      <point x="1990" y="282"/>
      <point x="2038" y="211"/>
      <point x="2144" y="211" type="curve" smooth="yes"/>
      <point x="2230" y="211"/>
      <point x="2320" y="282"/>
      <point x="2400" y="446" type="curve"/>
    </contour>
    <contour>
      <point x="508" y="-41" type="curve" smooth="yes"/>
      <point x="299" y="-41"/>
      <point x="164" y="74"/>
      <point x="164" y="238" type="curve" smooth="yes"/>
      <point x="164" y="619"/>
      <point x="807" y="439"/>
      <point x="807" y="1143" type="curve" smooth="yes"/>
      <point x="807" y="1843" type="line"/>
      <point x="1036" y="1843" type="line"/>
      <point x="1036" y="995" type="line" smooth="yes"/>
      <point x="1036" y="348"/>
      <point x="848" y="-41"/>
    </contour>
    <contour>
      <point x="2359" y="1884" type="line"/>
      <point x="2359" y="1311" type="line"/>
      <point x="225" y="1311" type="line"/>
      <point x="225" y="1004" type="line"/>
      <point x="168" y="1004" type="line"/>
      <point x="168" y="1884" type="line"/>
    </contour>
  </outline>
</glyph>
<glyph name="uni1E9E" format="2">
  <advance width="3649"/>
  <unicode hex="1E9E"/>
  <outline>
    <contour>
      <point x="61" y="57" type="line"/>
      <point x="1454" y="57" type="line"/>
      <point x="1454" y="0" type="line"/>
      <point x="61" y="0" type="line"/>
    </contour>
    <contour>
      <point x="2498" y="1600" type="line"/>
      <point x="2407" y="1622"/>
      <point x="2006" y="1694"/>
      <point x="1876" y="1700" type="curve"/>
      <point x="2845" y="2908" type="line"/>
      <point x="2705" y="2976"/>
      <point x="2463" y="3050"/>
      <point x="2162" y="3050" type="curve" smooth="yes"/>
      <point x="1367" y="3050"/>
      <point x="1086" y="2531"/>
      <point x="1086" y="1765" type="curve" smooth="yes"/>
      <point x="1086" y="0" type="line"/>
      <point x="430" y="0" type="line"/>
      <point x="430" y="1806" type="line" smooth="yes"/>
      <point x="430" y="2678"/>
      <point x="1188" y="3113"/>
      <point x="2162" y="3113" type="curve" smooth="yes"/>
      <point x="2789" y="3113"/>
      <point x="3218" y="2842"/>
      <point x="3362" y="2686" type="curve"/>
    </contour>
    <contour>
      <point x="1528" y="475" type="curve"/>
      <point x="1573" y="283"/>
      <point x="1838" y="35"/>
      <point x="2236" y="35" type="curve" smooth="yes"/>
      <point x="2672" y="35"/>
      <point x="2816" y="373"/>
      <point x="2816" y="819" type="curve" smooth="yes"/>
      <point x="2816" y="1183"/>
      <point x="2670" y="1647"/>
      <point x="1876" y="1647" type="curve"/>
      <point x="1876" y="1700" type="line"/>
      <point x="3130" y="1700"/>
      <point x="3486" y="1322"/>
      <point x="3486" y="830" type="curve" smooth="yes"/>
      <point x="3486" y="278"/>
      <point x="2978" y="-41"/>
      <point x="2360" y="-41" type="curve" smooth="yes"/>
      <point x="1716" y="-41"/>
      <point x="1413" y="324"/>
      <point x="1413" y="660" type="curve" smooth="yes"/>
      <point x="1413" y="890"/>
      <point x="1568" y="1038"/>
      <point x="1772" y="1038" type="curve" smooth="yes"/>
      <point x="1956" y="1038"/>
      <point x="2095" y="906"/>
      <point x="2095" y="698" type="curve" smooth="yes"/>
      <point x="2095" y="506"/>
      <point x="1929" y="369"/>
      <point x="1749" y="369" type="curve" smooth="yes"/>
      <point x="1636" y="369"/>
      <point x="1552" y="434"/>
    </contour>
  </outline>
</glyph>
<glyph name="perthousand" format="2">
  <advance width="12080"/>
  <unicode hex="2030"/>
  <outline>
    <contour>
      <point x="9520" y="1680" type="curve" smooth="yes"/>
      <point x="9520" y="640"/>
      <point x="9648" y="32"/>
      <point x="10040" y="32" type="curve" smooth="yes"/>
      <point x="10432" y="32"/>
      <point x="10560" y="640"/>
      <point x="10560" y="1680" type="curve" smooth="yes"/>
      <point x="10560" y="2720"/>
      <point x="10432" y="3328"/>
      <point x="10040" y="3328" type="curve" smooth="yes"/>
      <point x="9648" y="3328"/>
      <point x="9520" y="2720"/>
    </contour>
    <contour>
      <point x="8280" y="1680" type="curve" smooth="yes"/>
      <point x="8280" y="2824"/>
      <point x="9136" y="3440"/>
      <point x="10040" y="3440" type="curve" smooth="yes"/>
      <point x="10944" y="3440"/>
      <point x="11800" y="2824"/>
      <point x="11800" y="1680" type="curve" smooth="yes"/>
      <point x="11800" y="536"/>
      <point x="10784" y="-80"/>
      <point x="10040" y="-80" type="curve" smooth="yes"/>
      <point x="9136" y="-80"/>
      <point x="8280" y="536"/>
    </contour>
    <contour>
      <point x="5600" y="1680" type="curve" smooth="yes"/>
      <point x="5600" y="640"/>
      <point x="5728" y="32"/>
      <point x="6120" y="32" type="curve" smooth="yes"/>
      <point x="6512" y="32"/>
      <point x="6640" y="640"/>
      <point x="6640" y="1680" type="curve" smooth="yes"/>
      <point x="6640" y="2720"/>
      <point x="6512" y="3328"/>
      <point x="6120" y="3328" type="curve" smooth="yes"/>
      <point x="5728" y="3328"/>
      <point x="5600" y="2720"/>
    </contour>
    <contour>
      <point x="4360" y="1680" type="curve" smooth="yes"/>
      <point x="4360" y="2824"/>
      <point x="5216" y="3440"/>
      <point x="6120" y="3440" type="curve" smooth="yes"/>
      <point x="7024" y="3440"/>
      <point x="7880" y="2824"/>
      <point x="7880" y="1680" type="curve" smooth="yes"/>
      <point x="7880" y="536"/>
      <point x="6864" y="-80"/>
      <point x="6120" y="-80" type="curve" smooth="yes"/>
      <point x="5216" y="-80"/>
      <point x="4360" y="536"/>
    </contour>
    <contour>
      <point x="6064" y="6000" type="line"/>
      <point x="6200" y="6000" type="line"/>
      <point x="2096" y="0" type="line"/>
      <point x="1960" y="0" type="line"/>
    </contour>
    <contour>
      <point x="1520" y="4320" type="curve" smooth="yes"/>
      <point x="1520" y="3280"/>
      <point x="1648" y="2672"/>
      <point x="2040" y="2672" type="curve" smooth="yes"/>
      <point x="2432" y="2672"/>
      <point x="2560" y="3280"/>
      <point x="2560" y="4320" type="curve" smooth="yes"/>
      <point x="2560" y="5360"/>
      <point x="2432" y="5968"/>
      <point x="2040" y="5968" type="curve" smooth="yes"/>
      <point x="1648" y="5968"/>
      <point x="1520" y="5360"/>
    </contour>
    <contour>
      <point x="280" y="4320" type="curve" smooth="yes"/>
      <point x="280" y="5464"/>
      <point x="1136" y="6080"/>
      <point x="2040" y="6080" type="curve" smooth="yes"/>
      <point x="2944" y="6080"/>
      <point x="3800" y="5464"/>
      <point x="3800" y="4320" type="curve" smooth="yes"/>
      <point x="3800" y="3176"/>
      <point x="2784" y="2560"/>
      <point x="2040" y="2560" type="curve" smooth="yes"/>
      <point x="1136" y="2560"/>
      <point x="280" y="3176"/>
    </contour>
  </outline>
</glyph>
<glyph name="uni2031" format="2">
  <advance width="8212"/>
  <unicode hex="2031"/>
  <outline>
    <contour>
      <point x="6902" y="860" type="curve" smooth="yes"/>
      <point x="6902" y="326"/>
      <point x="6968" y="16"/>
      <point x="7168" y="16" type="curve" smooth="yes"/>
      <point x="7368" y="16"/>
      <point x="7434" y="326"/>
      <point x="7434" y="860" type="curve" smooth="yes"/>
      <point x="7434" y="1394"/>
      <point x="7368" y="1704"/>
      <point x="7168" y="1704" type="curve" smooth="yes"/>
      <point x="6968" y="1704"/>
      <point x="6902" y="1394"/>
    </contour>
    <contour>
      <point x="6266" y="860" type="curve" smooth="yes"/>
      <point x="6266" y="1446"/>
      <point x="6705" y="1761"/>
      <point x="7168" y="1761" type="curve" smooth="yes"/>
      <point x="7631" y="1761"/>
      <point x="8069" y="1446"/>
      <point x="8069" y="860" type="curve" smooth="yes"/>
      <point x="8069" y="274"/>
      <point x="7549" y="-41"/>
      <point x="7168" y="-41" type="curve" smooth="yes"/>
      <point x="6705" y="-41"/>
      <point x="6266" y="274"/>
    </contour>
    <contour>
      <point x="4874" y="860" type="curve" smooth="yes"/>
      <point x="4874" y="326"/>
      <point x="4940" y="16"/>
      <point x="5140" y="16" type="curve" smooth="yes"/>
      <point x="5340" y="16"/>
      <point x="5406" y="326"/>
      <point x="5406" y="860" type="curve" smooth="yes"/>
      <point x="5406" y="1394"/>
      <point x="5340" y="1704"/>
      <point x="5140" y="1704" type="curve" smooth="yes"/>
      <point x="4940" y="1704"/>
      <point x="4874" y="1394"/>
    </contour>
    <contour>
      <point x="4239" y="860" type="curve" smooth="yes"/>
      <point x="4239" y="1446"/>
      <point x="4677" y="1761"/>
      <point x="5140" y="1761" type="curve" smooth="yes"/>
      <point x="5603" y="1761"/>
      <point x="6042" y="1446"/>
      <point x="6042" y="860" type="curve" smooth="yes"/>
      <point x="6042" y="274"/>
      <point x="5521" y="-41"/>
      <point x="5140" y="-41" type="curve" smooth="yes"/>
      <point x="4677" y="-41"/>
      <point x="4239" y="274"/>
    </contour>
    <contour>
      <point x="2868" y="860" type="curve" smooth="yes"/>
      <point x="2868" y="326"/>
      <point x="2933" y="16"/>
      <point x="3133" y="16" type="curve" smooth="yes"/>
      <point x="3333" y="16"/>
      <point x="3400" y="326"/>
      <point x="3400" y="860" type="curve" smooth="yes"/>
      <point x="3400" y="1394"/>
      <point x="3333" y="1704"/>
      <point x="3133" y="1704" type="curve" smooth="yes"/>
      <point x="2933" y="1704"/>
      <point x="2868" y="1394"/>
    </contour>
    <contour>
      <point x="2232" y="860" type="curve" smooth="yes"/>
      <point x="2232" y="1446"/>
      <point x="2670" y="1761"/>
      <point x="3133" y="1761" type="curve" smooth="yes"/>
      <point x="3596" y="1761"/>
      <point x="4034" y="1446"/>
      <point x="4034" y="860" type="curve" smooth="yes"/>
      <point x="4034" y="274"/>
      <point x="3514" y="-41"/>
      <point x="3133" y="-41" type="curve" smooth="yes"/>
      <point x="2670" y="-41"/>
      <point x="2232" y="274"/>
    </contour>
    <contour>
      <point x="3105" y="3072" type="line"/>
      <point x="3174" y="3072" type="line"/>
      <point x="1073" y="0" type="line"/>
      <point x="1004" y="0" type="line"/>
    </contour>
    <contour>
      <point x="778" y="2212" type="curve" smooth="yes"/>
      <point x="778" y="1678"/>
      <point x="844" y="1368"/>
      <point x="1044" y="1368" type="curve" smooth="yes"/>
      <point x="1244" y="1368"/>
      <point x="1310" y="1678"/>
      <point x="1310" y="2212" type="curve" smooth="yes"/>
      <point x="1310" y="2746"/>
      <point x="1244" y="3056"/>
      <point x="1044" y="3056" type="curve" smooth="yes"/>
      <point x="844" y="3056"/>
      <point x="778" y="2746"/>
    </contour>
    <contour>
      <point x="143" y="2212" type="curve" smooth="yes"/>
      <point x="143" y="2798"/>
      <point x="581" y="3113"/>
      <point x="1044" y="3113" type="curve" smooth="yes"/>
      <point x="1507" y="3113"/>
      <point x="1946" y="2798"/>
      <point x="1946" y="2212" type="curve" smooth="yes"/>
      <point x="1946" y="1626"/>
      <point x="1425" y="1311"/>
      <point x="1044" y="1311" type="curve" smooth="yes"/>
      <point x="581" y="1311"/>
      <point x="143" y="1626"/>
    </contour>
  </outline>
</glyph>
<glyph name="uni203D" format="2">
  <advance width="660"/>
  <unicode hex="203D"/>
  <outline>
    <contour>
      <point x="406" y="519" type="curve" smooth="yes"/>
      <point x="395" y="423"/>
      <point x="329" y="313"/>
      <point x="329" y="243" type="curve"/>
      <point x="315" y="243" type="line"/>
      <point x="315" y="313"/>
      <point x="269" y="423"/>
      <point x="258" y="519" type="curve" smooth="yes"/>
      <point x="257" y="526"/>
      <point x="257" y="532"/>
      <point x="257" y="538" type="curve" smooth="yes"/>
      <point x="257" y="566"/>
      <point x="275" y="613"/>
      <point x="332" y="613" type="curve" smooth="yes"/>
      <point x="389" y="613"/>
      <point x="407" y="566"/>
      <point x="407" y="538" type="curve" smooth="yes"/>
      <point x="407" y="532"/>
      <point x="407" y="526"/>
    </contour>
    <contour>
      <point x="65" y="556" type="curve" smooth="yes"/>
      <point x="65" y="648"/>
      <point x="164" y="760"/>
      <point x="341" y="760" type="curve" smooth="yes"/>
      <point x="492" y="760"/>
      <point x="620" y="685"/>
      <point x="620" y="550" type="curve" smooth="yes"/>
      <point x="620" y="420"/>
      <point x="468" y="335"/>
      <point x="337" y="335" type="curve"/>
      <point x="337" y="345" type="line"/>
      <point x="419" y="353"/>
      <point x="489" y="462"/>
      <point x="489" y="560" type="curve" smooth="yes"/>
      <point x="489" y="654"/>
      <point x="427" y="737"/>
      <point x="318" y="737" type="curve" smooth="yes"/>
      <point x="180" y="737"/>
      <point x="107" y="653"/>
      <point x="95" y="601" type="curve"/>
      <point x="100" y="611"/>
      <point x="119" y="625"/>
      <point x="147" y="625" type="curve" smooth="yes"/>
      <point x="191" y="625"/>
      <point x="219" y="585"/>
      <point x="219" y="550" type="curve" smooth="yes"/>
      <point x="219" y="495"/>
      <point x="177" y="469"/>
      <point x="142" y="469" type="curve" smooth="yes"/>
      <point x="102" y="469"/>
      <point x="65" y="500"/>
    </contour>
    <component base="period" xOffset="189"/>
  </outline>
</glyph>
<glyph name="Euro" format="2">
  <advance width="5800"/>
  <unicode hex="20AC"/>
  <outline>
    <contour>
      <point x="5120" y="5304" type="curve"/>
      <point x="4960" y="5576"/>
      <point x="4496" y="5944"/>
      <point x="3832" y="5944" type="curve" smooth="yes"/>
      <point x="2680" y="5944"/>
      <point x="2320" y="4552"/>
      <point x="2320" y="3000" type="curve" smooth="yes"/>
      <point x="2320" y="1288"/>
      <point x="2768" y="96"/>
      <point x="3680" y="96" type="curve" smooth="yes"/>
      <point x="4456" y="96"/>
      <point x="5024" y="720"/>
      <point x="5224" y="1424" type="curve"/>
      <point x="5344" y="1424" type="line"/>
      <point x="5136" y="648"/>
      <point x="4512" y="-80"/>
      <point x="3464" y="-80" type="curve" smooth="yes"/>
      <point x="2056" y="-80"/>
      <point x="880" y="1160"/>
      <point x="880" y="3000" type="curve" smooth="yes"/>
      <point x="880" y="4680"/>
      <point x="1944" y="6080"/>
      <point x="3672" y="6080" type="curve" smooth="yes"/>
      <point x="4768" y="6080"/>
      <point x="5440" y="5384"/>
      <point x="5440" y="4848" type="curve" smooth="yes"/>
      <point x="5440" y="4400"/>
      <point x="5144" y="4152"/>
      <point x="4784" y="4152" type="curve" smooth="yes"/>
      <point x="4464" y="4152"/>
      <point x="4128" y="4360"/>
      <point x="4128" y="4800" type="curve" smooth="yes"/>
      <point x="4128" y="5200"/>
      <point x="4432" y="5440"/>
      <point x="4784" y="5440" type="curve" smooth="yes"/>
      <point x="4944" y="5440"/>
      <point x="5072" y="5360"/>
    </contour>
    <component base="equal" xOffset="-240" yOffset="-560"/>
  </outline>
</glyph>
<glyph name="uniFB00" format="2">
  <advance width="700"/>
  <unicode hex="FB00"/>
  <outline>
    <contour>
      <point x="12" y="14" type="line"/>
      <point x="669" y="14" type="line"/>
      <point x="669" y="0" type="line"/>
      <point x="12" y="0" type="line"/>
    </contour>
    <contour>
      <point x="12" y="460" type="line"/>
      <point x="689" y="460" type="line"/>
      <point x="689" y="446" type="line"/>
      <point x="12" y="446" type="line"/>
    </contour>
    <contour>
      <point x="468" y="640" type="curve"/>
      <point x="461" y="664"/>
      <point x="417" y="695"/>
      <point x="364" y="695" type="curve" smooth="yes"/>
      <point x="287" y="695"/>
      <point x="238" y="617"/>
      <point x="238" y="490" type="curve" smooth="yes"/>
      <point x="238" y="0" type="line"/>
      <point x="102" y="0" type="line"/>
      <point x="102" y="462" type="line" smooth="yes"/>
      <point x="102" y="603"/>
      <point x="210" y="710"/>
      <point x="360" y="710" type="curve" smooth="yes"/>
      <point x="446" y="710"/>
      <point x="508" y="651"/>
      <point x="508" y="591" type="curve" smooth="yes"/>
      <point x="508" y="540"/>
      <point x="475" y="509"/>
      <point x="430" y="509" type="curve" smooth="yes"/>
      <point x="390" y="509"/>
      <point x="350" y="534"/>
      <point x="350" y="584" type="curve" smooth="yes"/>
      <point x="350" y="634"/>
      <point x="382" y="660"/>
      <point x="426" y="660" type="curve" smooth="yes"/>
      <point x="448" y="660"/>
      <point x="466" y="645"/>
    </contour>
    <contour>
      <point x="760" y="694" type="curve"/>
      <point x="750" y="716"/>
      <point x="718" y="746"/>
      <point x="662" y="746" type="curve" smooth="yes"/>
      <point x="582" y="746"/>
      <point x="550" y="667"/>
      <point x="550" y="540" type="curve" smooth="yes"/>
      <point x="550" y="0" type="line"/>
      <point x="415" y="0" type="line"/>
      <point x="415" y="512" type="line" smooth="yes"/>
      <point x="415" y="653"/>
      <point x="512" y="760"/>
      <point x="657" y="760" type="curve" smooth="yes"/>
      <point x="743" y="760"/>
      <point x="795" y="703"/>
      <point x="795" y="646" type="curve" smooth="yes"/>
      <point x="795" y="595"/>
      <point x="763" y="564"/>
      <point x="718" y="564" type="curve" smooth="yes"/>
      <point x="678" y="564"/>
      <point x="637" y="588"/>
      <point x="637" y="638" type="curve" smooth="yes"/>
      <point x="637" y="688"/>
      <point x="672" y="716"/>
      <point x="716" y="716" type="curve" smooth="yes"/>
      <point x="736" y="716"/>
      <point x="756" y="704"/>
    </contour>
  </outline>
</glyph>
<glyph name="uniFB01" format="2">
  <advance width="627"/>
  <unicode hex="FB01"/>
  <outline>
    <contour>
      <point x="102" y="512" type="line" smooth="yes"/>
      <point x="102" y="658"/>
      <point x="205" y="760"/>
      <point x="380" y="760" type="curve" smooth="yes"/>
      <point x="486" y="760"/>
      <point x="542" y="703"/>
      <point x="542" y="641" type="curve" smooth="yes"/>
      <point x="542" y="590"/>
      <point x="511" y="559"/>
      <point x="466" y="559" type="curve" smooth="yes"/>
      <point x="426" y="559"/>
      <point x="384" y="584"/>
      <point x="384" y="633" type="curve" smooth="yes"/>
      <point x="384" y="683"/>
      <point x="419" y="710"/>
      <point x="463" y="710" type="curve" smooth="yes"/>
      <point x="485" y="710"/>
      <point x="500" y="700"/>
      <point x="504" y="688" type="curve"/>
      <point x="495" y="716"/>
      <point x="455" y="746"/>
      <point x="380" y="746" type="curve" smooth="yes"/>
      <point x="273" y="746"/>
      <point x="238" y="667"/>
      <point x="238" y="540" type="curve" smooth="yes"/>
      <point x="238" y="0" type="line"/>
      <point x="102" y="0" type="line"/>
    </contour>
    <contour>
      <point x="12" y="14" type="line"/>
      <point x="610" y="14" type="line"/>
      <point x="610" y="0" type="line"/>
      <point x="12" y="0" type="line"/>
    </contour>
    <contour>
      <point x="400" y="446" type="line"/>
      <point x="12" y="446" type="line"/>
      <point x="12" y="460" type="line"/>
      <point x="540" y="460" type="line"/>
      <point x="540" y="0" type="line"/>
      <point x="400" y="0" type="line"/>
    </contour>
  </outline>
</glyph>
<glyph name="uniFB02" format="2">
  <advance width="2754"/>
  <unicode hex="FB02"/>
  <outline>
    <contour>
      <point x="51" y="57" type="line"/>
      <point x="2714" y="57" type="line"/>
      <point x="2714" y="0" type="line"/>
      <point x="51" y="0" type="line"/>
    </contour>
    <contour>
      <point x="51" y="1884" type="line"/>
      <point x="1536" y="1884" type="line"/>
      <point x="1536" y="1827" type="line"/>
      <point x="51" y="1827" type="line"/>
    </contour>
    <contour>
      <point x="1812" y="2990" type="line"/>
      <point x="2386" y="3154" type="line"/>
      <point x="2386" y="0" type="line"/>
      <point x="1812" y="0" type="line"/>
    </contour>
    <contour>
      <point x="1856" y="2818" type="curve"/>
      <point x="1828" y="2916"/>
      <point x="1684" y="3056"/>
      <point x="1452" y="3056" type="curve" smooth="yes"/>
      <point x="1110" y="3056"/>
      <point x="973" y="2732"/>
      <point x="973" y="2212" type="curve" smooth="yes"/>
      <point x="973" y="0" type="line"/>
      <point x="420" y="0" type="line"/>
      <point x="420" y="2097" type="line" smooth="yes"/>
      <point x="420" y="2675"/>
      <point x="838" y="3113"/>
      <point x="1432" y="3113" type="curve" smooth="yes"/>
      <point x="1784" y="3113"/>
      <point x="1997" y="2880"/>
      <point x="1997" y="2626" type="curve" smooth="yes"/>
      <point x="1997" y="2417"/>
      <point x="1866" y="2290"/>
      <point x="1682" y="2290" type="curve" smooth="yes"/>
      <point x="1518" y="2290"/>
      <point x="1350" y="2388"/>
      <point x="1350" y="2593" type="curve" smooth="yes"/>
      <point x="1350" y="2798"/>
      <point x="1489" y="2910"/>
      <point x="1669" y="2910" type="curve" smooth="yes"/>
      <point x="1783" y="2910"/>
      <point x="1852" y="2818"/>
    </contour>
  </outline>
</glyph>
<glyph name="uniFB03" format="2">
  <advance width="930"/>
  <unicode hex="FB03"/>
  <outline>
    <contour>
      <point x="405" y="512" type="line" smooth="yes"/>
      <point x="405" y="658"/>
      <point x="507" y="760"/>
      <point x="682" y="760" type="curve" smooth="yes"/>
      <point x="788" y="760"/>
      <point x="845" y="703"/>
      <point x="845" y="641" type="curve" smooth="yes"/>
      <point x="845" y="590"/>
      <point x="813" y="559"/>
      <point x="768" y="559" type="curve" smooth="yes"/>
      <point x="728" y="559"/>
      <point x="687" y="584"/>
      <point x="687" y="633" type="curve" smooth="yes"/>
      <point x="687" y="683"/>
      <point x="721" y="710"/>
      <point x="765" y="710" type="curve" smooth="yes"/>
      <point x="789" y="710"/>
      <point x="803" y="698"/>
      <point x="806" y="688" type="curve"/>
      <point x="797" y="716"/>
      <point x="757" y="746"/>
      <point x="682" y="746" type="curve" smooth="yes"/>
      <point x="575" y="746"/>
      <point x="540" y="667"/>
      <point x="540" y="540" type="curve" smooth="yes"/>
      <point x="540" y="0" type="line"/>
      <point x="405" y="0" type="line"/>
    </contour>
    <contour>
      <point x="12" y="14" type="line"/>
      <point x="912" y="14" type="line"/>
      <point x="912" y="0" type="line"/>
      <point x="12" y="0" type="line"/>
    </contour>
    <contour>
      <point x="102" y="462" type="line" smooth="yes"/>
      <point x="102" y="602"/>
      <point x="210" y="710"/>
      <point x="360" y="710" type="curve" smooth="yes"/>
      <point x="446" y="710"/>
      <point x="508" y="651"/>
      <point x="508" y="591" type="curve" smooth="yes"/>
      <point x="508" y="540"/>
      <point x="475" y="509"/>
      <point x="430" y="509" type="curve" smooth="yes"/>
      <point x="390" y="509"/>
      <point x="350" y="534"/>
      <point x="350" y="584" type="curve" smooth="yes"/>
      <point x="350" y="634"/>
      <point x="382" y="660"/>
      <point x="426" y="660" type="curve" smooth="yes"/>
      <point x="448" y="660"/>
      <point x="464" y="649"/>
      <point x="466" y="644" type="curve"/>
      <point x="457" y="666"/>
      <point x="418" y="695"/>
      <point x="364" y="695" type="curve" smooth="yes"/>
      <point x="287" y="695"/>
      <point x="238" y="617"/>
      <point x="238" y="490" type="curve" smooth="yes"/>
      <point x="238" y="0" type="line"/>
      <point x="102" y="0" type="line"/>
    </contour>
    <contour>
      <point x="702" y="446" type="line"/>
      <point x="12" y="446" type="line"/>
      <point x="12" y="460" type="line"/>
      <point x="842" y="460" type="line"/>
      <point x="842" y="0" type="line"/>
      <point x="702" y="0" type="line"/>
    </contour>
  </outline>
</glyph>
<glyph name="uniFB04" format="2">
  <advance width="7920"/>
  <unicode hex="FB04"/>
  <outline>
    <contour>
      <point x="96" y="112" type="line"/>
      <point x="7800" y="112" type="line"/>
      <point x="7800" y="0" type="line"/>
      <point x="96" y="0" type="line"/>
    </contour>
    <contour>
      <point x="96" y="3680" type="line"/>
      <point x="5504" y="3680" type="line"/>
      <point x="5504" y="3568" type="line"/>
      <point x="96" y="3568" type="line"/>
    </contour>
    <contour>
      <point x="6040" y="5840" type="line"/>
      <point x="7160" y="6160" type="line"/>
      <point x="7160" y="0" type="line"/>
      <point x="6040" y="0" type="line"/>
    </contour>
    <contour>
      <point x="3728" y="5152" type="curve"/>
      <point x="3656" y="5328"/>
      <point x="3336" y="5560"/>
      <point x="2912" y="5560" type="curve" smooth="yes"/>
      <point x="2296" y="5560"/>
      <point x="1904" y="4936"/>
      <point x="1904" y="3920" type="curve" smooth="yes"/>
      <point x="1904" y="0" type="line"/>
      <point x="816" y="0" type="line"/>
      <point x="816" y="3696" type="line" smooth="yes"/>
      <point x="816" y="4816"/>
      <point x="1680" y="5680"/>
      <point x="2880" y="5680" type="curve" smooth="yes"/>
      <point x="3568" y="5680"/>
      <point x="4064" y="5208"/>
      <point x="4064" y="4728" type="curve" smooth="yes"/>
      <point x="4064" y="4320"/>
      <point x="3800" y="4072"/>
      <point x="3440" y="4072" type="curve" smooth="yes"/>
      <point x="3120" y="4072"/>
      <point x="2800" y="4272"/>
      <point x="2800" y="4672" type="curve" smooth="yes"/>
      <point x="2800" y="5072"/>
      <point x="3056" y="5280"/>
      <point x="3408" y="5280" type="curve" smooth="yes"/>
      <point x="3568" y="5280"/>
      <point x="3712" y="5192"/>
    </contour>
    <contour>
      <point x="6120" y="5520" type="curve"/>
      <point x="6056" y="5728"/>
      <point x="5752" y="5968"/>
      <point x="5336" y="5968" type="curve" smooth="yes"/>
      <point x="4664" y="5968"/>
      <point x="4400" y="5336"/>
      <point x="4400" y="4320" type="curve" smooth="yes"/>
      <point x="4400" y="0" type="line"/>
      <point x="3320" y="0" type="line"/>
      <point x="3320" y="4096" type="line" smooth="yes"/>
      <point x="3320" y="5224"/>
      <point x="4136" y="6080"/>
      <point x="5296" y="6080" type="curve" smooth="yes"/>
      <point x="5984" y="6080"/>
      <point x="6400" y="5624"/>
      <point x="6400" y="5128" type="curve" smooth="yes"/>
      <point x="6400" y="4720"/>
      <point x="6144" y="4472"/>
      <point x="5784" y="4472" type="curve" smooth="yes"/>
      <point x="5464" y="4472"/>
      <point x="5136" y="4664"/>
      <point x="5136" y="5064" type="curve" smooth="yes"/>
      <point x="5136" y="5464"/>
      <point x="5408" y="5680"/>
      <point x="5760" y="5680" type="curve" smooth="yes"/>
      <point x="5984" y="5680"/>
      <point x="6112" y="5520"/>
    </contour>
  </outline>
</glyph>
<glyph name="J.alt" format="2">
  <advance width="2594"/>
  <outline>
    <contour>
      <point x="977" y="3072" type="line"/>
      <point x="2533" y="3072" type="line"/>
      <point x="2533" y="3015" type="line"/>
      <point x="977" y="3015" type="line"/>
    </contour>
    <contour>
      <point x="1489" y="3072" type="line"/>
      <point x="2124" y="3072" type="line"/>
      <point x="2124" y="922" type="line"/>
      <point x="2001" y="348"/>
      <point x="1656" y="-82"/>
      <point x="936" y="-82" type="curve" smooth="yes"/>
      <point x="396" y="-82"/>
      <point x="72" y="307"/>
      <point x="72" y="676" type="curve" smooth="yes"/>
      <point x="72" y="992"/>
      <point x="284" y="1168"/>
      <point x="510" y="1168" type="curve" smooth="yes"/>
      <point x="714" y="1168"/>
      <point x="883" y="1032"/>
      <point x="883" y="792" type="curve" smooth="yes"/>
      <point x="883" y="588"/>
      <point x="713" y="420"/>
      <point x="494" y="420" type="curve" smooth="yes"/>
      <point x="338" y="420"/>
      <point x="218" y="496"/>
      <point x="156" y="590" type="curve"/>
      <point x="193" y="278"/>
      <point x="477" y="-20"/>
      <point x="895" y="-20" type="curve" smooth="yes"/>
      <point x="1329" y="-20"/>
      <point x="1489" y="328"/>
      <point x="1489" y="901" type="curve" smooth="yes"/>
    </contour>
  </outline>
</glyph>
<glyph name="R.alt" format="2">
  <advance width="3011"/>
  <outline>
    <contour>
      <point x="1519" y="1560" type="curve" smooth="yes"/>
      <point x="823" y="1560" type="line"/>
      <point x="823" y="1597" type="line"/>
      <point x="1416" y="1597" type="line" smooth="yes"/>
      <point x="1809" y="1597"/>
      <point x="2010" y="1819"/>
      <point x="2010" y="2306" type="curve" smooth="yes"/>
      <point x="2010" y="2793"/>
      <point x="1809" y="3016"/>
      <point x="1416" y="3016" type="curve" smooth="yes"/>
      <point x="85" y="3016" type="line"/>
      <point x="85" y="3072" type="line"/>
      <point x="1519" y="3072" type="line" smooth="yes"/>
      <point x="2199" y="3072"/>
      <point x="2666" y="2838"/>
      <point x="2666" y="2306" type="curve" smooth="yes"/>
      <point x="2666" y="1774"/>
      <point x="2239" y="1560"/>
    </contour>
    <contour>
      <point x="85" y="56" type="line"/>
      <point x="1539" y="56" type="line"/>
      <point x="1539" y="0" type="line"/>
      <point x="85" y="0" type="line"/>
    </contour>
    <contour>
      <point x="494" y="3072" type="line"/>
      <point x="1130" y="3072" type="line"/>
      <point x="1130" y="0" type="line"/>
      <point x="494" y="0" type="line"/>
    </contour>
    <contour>
      <point x="2952" y="0" type="line"/>
      <point x="2886" y="0"/>
      <point x="2649" y="0"/>
      <point x="2502" y="0" type="curve" smooth="yes"/>
      <point x="1425" y="0"/>
      <point x="2404" y="1540"/>
      <point x="1396" y="1540" type="curve" smooth="yes"/>
      <point x="823" y="1540" type="line"/>
      <point x="823" y="1572" type="line"/>
      <point x="1724" y="1572" type="line" smooth="yes"/>
      <point x="3108" y="1572"/>
      <point x="2285" y="56"/>
      <point x="2809" y="56" type="curve" smooth="yes"/>
      <point x="2895" y="56"/>
      <point x="2895" y="56"/>
      <point x="2952" y="56" type="curve"/>
    </contour>
  </outline>
</glyph>
<glyph name="fj.lig" format="2">
  <advance width="4888"/>
  <outline>
    <contour>
      <point x="96" y="112" type="line"/>
      <point x="2640" y="112" type="line"/>
      <point x="2640" y="0" type="line"/>
      <point x="96" y="0" type="line"/>
    </contour>
    <contour>
      <point x="4280" y="-96" type="line" smooth="yes"/>
      <point x="4280" y="-1144"/>
      <point x="3664" y="-2080"/>
      <point x="2544" y="-2080" type="curve" smooth="yes"/>
      <point x="1816" y="-2080"/>
      <point x="1320" y="-1688"/>
      <point x="1320" y="-1152" type="curve" smooth="yes"/>
      <point x="1320" y="-744"/>
      <point x="1616" y="-472"/>
      <point x="1976" y="-472" type="curve" smooth="yes"/>
      <point x="2296" y="-472"/>
      <point x="2624" y="-664"/>
      <point x="2624" y="-1064" type="curve" smooth="yes"/>
      <point x="2624" y="-1464"/>
      <point x="2336" y="-1672"/>
      <point x="1936" y="-1672" type="curve" smooth="yes"/>
      <point x="1808" y="-1672"/>
      <point x="1704" y="-1592"/>
      <point x="1672" y="-1512" type="curve"/>
      <point x="1720" y="-1720"/>
      <point x="2024" y="-1952"/>
      <point x="2464" y="-1952" type="curve" smooth="yes"/>
      <point x="3304" y="-1952"/>
      <point x="3160" y="-856"/>
      <point x="3160" y="160" type="curve" smooth="yes"/>
      <point x="3160" y="3568" type="line"/>
      <point x="96" y="3568" type="line"/>
      <point x="96" y="3680" type="line"/>
      <point x="4280" y="3680" type="line"/>
    </contour>
    <contour>
      <point x="3976" y="5536" type="curve"/>
      <point x="3896" y="5712"/>
      <point x="3600" y="5968"/>
      <point x="2992" y="5968" type="curve" smooth="yes"/>
      <point x="2152" y="5968"/>
      <point x="1904" y="5336"/>
      <point x="1904" y="4320" type="curve" smooth="yes"/>
      <point x="1904" y="0" type="line"/>
      <point x="816" y="0" type="line"/>
      <point x="816" y="4096" type="line" smooth="yes"/>
      <point x="816" y="5264"/>
      <point x="1592" y="6080"/>
      <point x="2992" y="6080" type="curve" smooth="yes"/>
      <point x="3840" y="6080"/>
      <point x="4304" y="5624"/>
      <point x="4304" y="5128" type="curve" smooth="yes"/>
      <point x="4304" y="4720"/>
      <point x="4040" y="4472"/>
      <point x="3680" y="4472" type="curve" smooth="yes"/>
      <point x="3360" y="4472"/>
      <point x="3040" y="4664"/>
      <point x="3040" y="5064" type="curve" smooth="yes"/>
      <point x="3040" y="5464"/>
      <point x="3320" y="5680"/>
      <point x="3664" y="5680" type="curve" smooth="yes"/>
      <point x="3824" y="5680"/>
      <point x="3944" y="5592"/>
    </contour>
  </outline>
</glyph>
<glyph name="four.alt" format="2">
  <advance width="2682"/>
  <outline>
    <contour>
      <point x="2416" y="57" type="line"/>
      <point x="2416" y="0" type="line"/>
      <point x="1085" y="0" type="line"/>
      <point x="1085" y="57" type="line"/>
    </contour>
    <contour>
      <point x="2110" y="2040" type="curve"/>
      <point x="2110" y="-4" type="line"/>
      <point x="1475" y="-4" type="line"/>
      <point x="1475" y="1856" type="line"/>
      <point x="1659" y="1856"/>
      <point x="1987" y="1958"/>
    </contour>
    <contour>
      <point x="164" y="821" type="curve"/>
      <point x="2478" y="821" type="line"/>
      <point x="2478" y="764" type="line"/>
      <point x="61" y="764" type="line"/>
      <point x="634" y="1583"/>
      <point x="1270" y="2458"/>
      <point x="1352" y="3072" type="curve"/>
      <point x="2040" y="3072" type="line"/>
      <point x="1962" y="2376"/>
      <point x="742" y="1616"/>
    </contour>
  </outline>
</glyph>
